<svg aria-hidden="true" xmlns="http://www.w3.org/2000/svg" xmlns:xlink="http://www.w3.org/1999/xlink"><symbol viewBox="0 0 23 23" fill="none" id="across" xmlns="http://www.w3.org/2000/svg">
<path d="M2.98148 22.4524L22.4524 2.98148C23.1825 2.25132 23.1825 1.27778 22.4524 0.547619C21.7222 -0.18254 20.7487 -0.182538 20.0185 0.54762L0.547619 20.0185C-0.18254 20.7487 -0.18254 21.7222 0.547619 22.4524C1.27778 23.1825 2.25132 23.1825 2.98148 22.4524Z" fill="currentColor"/>
<path d="M0.547667 2.98148L20.0186 22.4524C20.7487 23.1825 21.7223 23.1825 22.4524 22.4524C23.1826 21.7222 23.1826 20.7487 22.4524 20.0185L2.98153 0.547619C2.25137 -0.18254 1.27783 -0.18254 0.547667 0.547619C-0.182492 1.27778 -0.182492 2.25132 0.547667 2.98148Z" fill="currentColor"/>
</symbol><symbol viewBox="0 0 15 8" fill="none" id="arrow" xmlns="http://www.w3.org/2000/svg">
<path id="dArrow 1" d="M14.3536 4.35355C14.5488 4.15829 14.5488 3.84171 14.3536 3.64645L11.1716 0.464466C10.9763 0.269204 10.6597 0.269204 10.4645 0.464466C10.2692 0.659728 10.2692 0.976311 10.4645 1.17157L13.2929 4L10.4645 6.82843C10.2692 7.02369 10.2692 7.34027 10.4645 7.53553C10.6597 7.7308 10.9763 7.7308 11.1716 7.53553L14.3536 4.35355ZM0 4.5H14V3.5H0V4.5Z" fill="currentColor"/>
</symbol><symbol viewBox="0 0 24 24" fill="none" id="arrow-circle" xmlns="http://www.w3.org/2000/svg">
<g id="bIcon">
<g id="bVector">
<path d="M12 3.25C11.5858 3.25 11.25 3.58579 11.25 4C11.25 4.41421 11.5858 4.75 12 4.75C16.0041 4.75 19.25 7.99594 19.25 12C19.25 16.0041 16.0041 19.25 12 19.25C11.5858 19.25 11.25 19.5858 11.25 20C11.25 20.4142 11.5858 20.75 12 20.75C16.8325 20.75 20.75 16.8325 20.75 12C20.75 7.16751 16.8325 3.25 12 3.25Z" fill="currentColor"/>
<path d="M10.4697 9.53033C10.1768 9.23744 10.1768 8.76256 10.4697 8.46967C10.7626 8.17678 11.2374 8.17678 11.5303 8.46967L14.5303 11.4697C14.8232 11.7626 14.8232 12.2374 14.5303 12.5303L11.5303 15.5303C11.2374 15.8232 10.7626 15.8232 10.4697 15.5303C10.1768 15.2374 10.1768 14.7626 10.4697 14.4697L12.1893 12.75H4C3.58579 12.75 3.25 12.4142 3.25 12C3.25 11.5858 3.58579 11.25 4 11.25H12.1893L10.4697 9.53033Z" fill="currentColor"/>
</g>
</g>
</symbol><symbol viewBox="0 0 27 26" fill="none" id="arrow-slider_" xmlns="http://www.w3.org/2000/svg">
<path d="M0.72 25.66V20.56L19.44 13.27L0.69 5.92V0.7L26.04 10.72V15.79L0.72 25.66Z" fill="currentColor"/>
</symbol><symbol viewBox="0 0 11 62" fill="none" id="bracket" xmlns="http://www.w3.org/2000/svg">
<path id="f&#xD1;&#x81;&#xD0;&#xBA;&#xD0;&#xBE;&#xD0;&#xB1;&#xD0;&#xBA;&#xD0;&#xB0;" d="M11 1H1V61H11" stroke="currentColor" stroke-width="2"/>
</symbol><symbol viewBox="0 0 13 133" fill="none" id="bracket-big" xmlns="http://www.w3.org/2000/svg">
<path id="e&#xD1;&#x81;&#xD0;&#xBA;&#xD0;&#xBE;&#xD0;&#xB1;&#xD0;&#xBA;&#xD0;&#xB0;" d="M13 1H1V132H13" stroke="currentColor" stroke-width="2"/>
</symbol><symbol viewBox="0 0 9 9" fill="none" id="calendar" xmlns="http://www.w3.org/2000/svg">
<g id="gicons8_calendar 1" clip-path="url(#gclip0_177_2172)">
<path id="gVector" d="M1.875 0V1.5H2.625V0H1.875ZM6.375 0V1.5H7.125V0H6.375ZM0.375 1.125C0.168457 1.125 0 1.29346 0 1.5V2.625C0 2.83154 0.168457 3 0.375 3V9H8.625V3C8.83154 3 9 2.83154 9 2.625V1.5C9 1.29346 8.83154 1.125 8.625 1.125H7.5V1.875H6V1.125H3V1.875H1.5V1.125H0.375ZM1.125 3H7.875V8.25H1.125V3ZM1.875 3.75V4.5H2.625V3.75H1.875ZM3.375 3.75V4.5H4.125V3.75H3.375ZM4.875 3.75V4.5H5.625V3.75H4.875ZM6.375 3.75V4.5H7.125V3.75H6.375ZM1.875 5.25V6H2.625V5.25H1.875ZM3.375 5.25V6H4.125V5.25H3.375ZM4.875 5.25V6H5.625V5.25H4.875ZM6.375 5.25V6H7.125V5.25H6.375ZM1.875 6.75V7.5H2.625V6.75H1.875ZM3.375 6.75V7.5H4.125V6.75H3.375ZM4.875 6.75V7.5H5.625V6.75H4.875ZM6.375 6.75V7.5H7.125V6.75H6.375Z" fill="currentColor"/>
</g>
<defs>
<clipPath id="gclip0_177_2172">
<rect width="9" height="9" fill="currentColor"/>
</clipPath>
</defs>
</symbol><symbol viewBox="0 0 12 12" fill="none" id="clock" xmlns="http://www.w3.org/2000/svg">
<g clip-path="url(#hclip0_2128_10183)">
<path d="M6 0C2.6914 0 0 2.69166 0 6C0 9.30834 2.6914 12 6 12C9.3086 12 12 9.30834 12 6C12 2.69166 9.3086 0 6 0ZM8.42672 8.07323L8.07328 8.42672C7.97562 8.52434 7.81737 8.52434 7.7197 8.42672L5.6464 6.35341C5.55267 6.25966 5.50001 6.13254 5.50001 6V1.99999C5.50001 1.8619 5.61195 1.74998 5.75002 1.74998H6.25001C6.38808 1.74998 6.50002 1.8619 6.50002 1.99999V5.79295L8.42674 7.71968C8.52438 7.81732 8.52438 7.97562 8.42672 8.07323Z" fill="currentColor"/>
</g>
<defs>
<clipPath id="hclip0_2128_10183">
<rect width="12" height="12" fill="currentColor"/>
</clipPath>
</defs>
</symbol><symbol viewBox="0 0 12 8" fill="none" id="envelope" xmlns="http://www.w3.org/2000/svg">
<path d="M0.947368 0.117188H11.0526C11.5074 0.118421 11.8977 0.441242 11.9842 0.887664L6 4.22245L0.0157895 0.887664C0.102262 0.441242 0.492558 0.118421 0.947368 0.117188ZM11.0526 7.9046H0.947368C0.424836 7.903 0.00148026 7.47977 0 6.95724V1.6014L5.84531 4.86032C5.89268 4.88635 5.94585 4.90053 6 4.9014C6.0544 4.90201 6.10781 4.88783 6.15469 4.86032L12 1.6014V6.95724C11.9996 7.48026 11.5757 7.90411 11.0526 7.9046Z" fill="currentColor"/>
</symbol><symbol viewBox="0 0 40 40" fill="none" id="eye" xmlns="http://www.w3.org/2000/svg">
<g id="jNew/Socials">
<rect x="0.5" y="0.5" width="39" height="39" rx="19.5" fill="currentColor"/>
<rect x="0.5" y="0.5" width="39" height="39" rx="19.5" stroke="currentColor"/>
<path id="jVector" d="M20 14C16.1788 14 12.7135 16.0906 10.1565 19.4863C9.94784 19.7645 9.94784 20.1532 10.1565 20.4314C12.7135 23.8312 16.1788 25.9219 20 25.9219C23.8212 25.9219 27.2865 23.8312 29.8435 20.4355C30.0522 20.1573 30.0522 19.7686 29.8435 19.4904C27.2865 16.0906 23.8212 14 20 14ZM20.2741 24.1585C17.7375 24.3181 15.6428 22.2275 15.8024 19.6868C15.9333 17.5921 17.6312 15.8942 19.7259 15.7633C22.2625 15.6038 24.3572 17.6944 24.1976 20.235C24.0626 22.3257 22.3647 24.0235 20.2741 24.1585ZM20.1473 22.2193C18.7808 22.3052 17.6516 21.1801 17.7416 19.8136C17.8112 18.6845 18.7276 17.7721 19.8568 17.6985C21.2233 17.6126 22.3525 18.7376 22.2625 20.1041C22.1888 21.2374 21.2724 22.1497 20.1473 22.2193Z" fill="currentColor"/>
</g>
</symbol><symbol viewBox="0 0 15 15" fill="none" id="file" xmlns="http://www.w3.org/2000/svg">
<g id="kfile">
<g id="kGroup">
<path id="kVector" d="M8.125 1.25H3.75C3.41848 1.25 3.10054 1.3817 2.86612 1.61612C2.6317 1.85054 2.5 2.16848 2.5 2.5V12.5C2.5 12.8315 2.6317 13.1495 2.86612 13.3839C3.10054 13.6183 3.41848 13.75 3.75 13.75H11.25C11.5815 13.75 11.8995 13.6183 12.1339 13.3839C12.3683 13.1495 12.5 12.8315 12.5 12.5V5.625L8.125 1.25Z" stroke="currentColor" stroke-linecap="round" stroke-linejoin="round"/>
<path id="kVector_2" d="M8.125 1.25V5.625H12.5" stroke="currentColor" stroke-linecap="round" stroke-linejoin="round"/>
</g>
</g>
</symbol><symbol viewBox="0 0 9 12" fill="none" id="location" xmlns="http://www.w3.org/2000/svg">
<g id="lGroup">
<path id="lVector" d="M4.07644 0C1.82526 0 0 1.813 0 4.04952C0 5.19367 1.12235 7.24348 1.12235 7.24348L3.92618 12L6.85164 7.29901C6.85164 7.29901 8.15117 5.34325 8.15117 4.04952C8.15151 1.813 6.32658 0 4.07644 0ZM4.05735 6.27991C2.76805 6.27991 1.72373 5.23558 1.72373 3.94492C1.72373 2.65595 2.76771 1.61231 4.05735 1.61231C5.34598 1.61231 6.39132 2.65595 6.39132 3.94492C6.39132 5.23558 5.34598 6.27991 4.05735 6.27991Z" fill="currentColor"/>
</g>
</symbol><symbol viewBox="0 0 15 15" fill="none" id="phone" xmlns="http://www.w3.org/2000/svg">
<g clip-path="url(#mclip0_2128_10178)">
<path d="M2.80246 0.691725C2.56813 0.698811 2.36228 0.822475 2.18997 0.994768L1.9025 1.28178L5.01804 4.45408L5.47031 4.00182C5.74288 3.72926 5.74287 3.27921 5.47031 3.00664L3.45798 0.994768C3.26307 0.799851 3.03678 0.684523 2.80246 0.691725ZM1.57016 1.61321L1.24011 1.9428C0.700051 2.48285 0.703614 3.1895 0.703614 3.51568C0.703614 4.86534 1.24319 7.19871 4.52182 10.4773C7.80046 13.756 10.1343 14.296 11.4839 14.296C11.8102 14.296 12.5168 14.2996 13.0568 13.7595L13.3553 13.461L10.2397 10.2887L9.9129 10.616C9.71921 10.8097 9.57627 10.8329 9.43729 10.8165C9.29831 10.8002 9.15463 10.7198 9.04956 10.6385C8.47663 10.1949 7.54901 9.55998 6.49432 8.50529C5.43963 7.4506 4.80471 6.52253 4.36115 5.94959C4.27983 5.84452 4.19942 5.70268 4.18308 5.56369C4.16669 5.4247 4.19185 5.27996 4.38541 5.08626L4.68616 4.78551L1.57016 1.61321ZM11.4949 9.3247C11.3144 9.3247 11.1341 9.39299 10.9978 9.52931L10.5712 9.95641L13.6872 13.1291L14.0049 12.8115C14.1771 12.6392 14.3002 12.4315 14.3074 12.1971C14.3145 11.9628 14.1998 11.7366 14.0049 11.5416L11.9925 9.52931C11.8562 9.39303 11.6755 9.3247 11.4949 9.3247Z" fill="currentColor"/>
</g>
<defs>
<clipPath id="mclip0_2128_10178">
<rect width="15" height="15" fill="currentColor"/>
</clipPath>
</defs>
</symbol><symbol viewBox="0 0 16 16" fill="none" id="search" xmlns="http://www.w3.org/2000/svg">
<g id="nloupe" clip-path="url(#nclip0_4003_5526)">
<g id="nGroup">
<g id="nGroup_2">
<path id="nVector" d="M6.47734 0.339844C9.86797 0.339844 12.6148 3.08672 12.6148 6.47734C12.6148 7.94297 12.1023 9.28672 11.2461 10.343L15.4648 14.5617C15.7148 14.8117 15.7148 15.2148 15.4648 15.4648C15.2148 15.7148 14.8117 15.7148 14.5617 15.4648L10.343 11.2461C9.28672 12.1023 7.94297 12.6148 6.47734 12.6148C3.08672 12.6148 0.339844 9.86797 0.339844 6.47734C0.339844 3.08672 3.08984 0.339844 6.47734 0.339844ZM6.47734 11.3398C9.16172 11.3398 11.3398 9.16172 11.3398 6.47734C11.3398 3.79297 9.16172 1.61484 6.47734 1.61484C3.79297 1.61484 1.61484 3.79297 1.61484 6.47734C1.61484 9.16172 3.79297 11.3398 6.47734 11.3398Z" fill="currentColor"/>
</g>
</g>
</g>
<defs>
<clipPath id="nclip0_4003_5526">
<rect width="16" height="16" fill="currentColor" transform="matrix(-1 0 0 1 16 0)"/>
</clipPath>
</defs>
</symbol><symbol viewBox="0 0 60 60" fill="none" id="smile" xmlns="http://www.w3.org/2000/svg">
<g id="osmile">
<g id="oGroup">
<path id="oVector" d="M30 55C43.8071 55 55 43.8071 55 30C55 16.1929 43.8071 5 30 5C16.1929 5 5 16.1929 5 30C5 43.8071 16.1929 55 30 55Z" stroke="currentColor" stroke-width="3" stroke-linecap="round" stroke-linejoin="round"/>
<path id="oVector_2" d="M20 40C20 40 23.75 35 30 35C36.25 35 40 40 40 40" stroke="currentColor" stroke-width="3" stroke-linecap="round" stroke-linejoin="round"/>
<path id="oVector_3" d="M22.5 22.5H22.525" stroke="currentColor" stroke-width="5" stroke-linecap="round" stroke-linejoin="round"/>
<path id="oVector_4" d="M37.5 22.5H37.525" stroke="currentColor" stroke-width="5" stroke-linecap="round" stroke-linejoin="round"/>
</g>
</g>
</symbol><symbol viewBox="0 0 15 15" fill="none" id="star" xmlns="http://www.w3.org/2000/svg">
<path id="pStar 1" d="M7.5 0.915527L9.18386 6.0979H14.6329L10.2245 9.30078L11.9084 14.4832L7.5 11.2803L3.09161 14.4832L4.77547 9.30078L0.367076 6.0979H5.81614L7.5 0.915527Z" fill="currentColor"/>
</symbol><symbol viewBox="0 0 18 14" fill="none" id="telegram" xmlns="http://www.w3.org/2000/svg">
<path d="M17.5242 0.294577C17.5115 0.232959 17.4832 0.175634 17.4418 0.128173C17.4005 0.0807116 17.3476 0.0447184 17.2882 0.0236772C17.0645 -0.0196077 16.8333 -0.00334205 16.6179 0.0708066C16.6179 0.0708066 1.73076 5.4133 0.878789 6.00456C0.697066 6.13176 0.642784 6.20713 0.605023 6.29193C0.4587 6.71359 0.91655 6.8997 0.91655 6.8997L4.75398 8.14815C4.81755 8.16363 4.88393 8.16363 4.9475 8.14815C5.82072 7.59694 13.7292 2.61249 14.1871 2.44524C14.2579 2.42404 14.3122 2.44524 14.298 2.49706C14.1139 3.13779 7.24383 9.23175 7.24383 9.23175C7.22709 9.25367 7.21284 9.27735 7.20135 9.3024L6.84498 13.102C6.84498 13.102 6.69393 14.2657 7.85979 13.102C8.68345 12.2799 9.47879 11.5921 9.87764 11.2599C11.1969 12.1692 12.6176 13.175 13.2289 13.7003C13.3322 13.7994 13.4543 13.877 13.5881 13.9283C13.7218 13.9797 13.8645 14.0039 14.0077 13.9995C14.5883 13.9783 14.7511 13.3399 14.7511 13.3399C14.7511 13.3399 17.4652 2.44054 17.5549 0.980066C17.5549 0.83873 17.5761 0.744498 17.5761 0.647918C17.5775 0.528147 17.56 0.408904 17.5242 0.294577Z" fill="currentColor"/>
</symbol><symbol viewBox="0 0 18 18" fill="none" id="user" xmlns="http://www.w3.org/2000/svg">
<g id="ruser">
<g id="rGroup">
<path id="rVector" d="M15 15.75V14.25C15 13.4544 14.6839 12.6913 14.1213 12.1287C13.5587 11.5661 12.7956 11.25 12 11.25H6C5.20435 11.25 4.44129 11.5661 3.87868 12.1287C3.31607 12.6913 3 13.4544 3 14.25V15.75" stroke="currentColor" stroke-width="1.4" stroke-linecap="round" stroke-linejoin="round"/>
<path id="rVector_2" d="M9 8.25C10.6569 8.25 12 6.90685 12 5.25C12 3.59315 10.6569 2.25 9 2.25C7.34315 2.25 6 3.59315 6 5.25C6 6.90685 7.34315 8.25 9 8.25Z" stroke="currentColor" stroke-width="1.4" stroke-linecap="round" stroke-linejoin="round"/>
</g>
</g>
</symbol><symbol viewBox="0 0 18 18" fill="none" id="whatsapp" xmlns="http://www.w3.org/2000/svg">
<path fill-rule="evenodd" clip-rule="evenodd" d="M14.6216 3.37883C13.1731 1.93372 11.2457 1.06219 9.19904 0.926749C7.15235 0.791306 5.12601 1.4012 3.49788 2.6427C1.86975 3.8842 0.750973 5.67256 0.350177 7.67429C-0.0506186 9.67602 0.293927 11.7545 1.31956 13.5221L0.121582 17.8779L4.59968 16.7094C5.83965 17.38 7.22837 17.7317 8.63965 17.7326C10.311 17.7327 11.9448 17.2397 13.3345 16.316C14.7243 15.3922 15.8076 14.0791 16.4474 12.5428C17.0873 11.0065 17.2549 9.31586 16.9293 7.6847C16.6036 6.05354 15.7992 4.5551 14.6177 3.37883H14.6216ZM8.64163 16.3127C7.38336 16.3098 6.14897 15.9707 5.06743 15.3308L4.81086 15.1796L2.15243 15.8728L2.85108 13.3021L2.69319 13.039C1.86574 11.7262 1.5002 10.177 1.65403 8.63497C1.80785 7.09293 2.47233 5.64547 3.54299 4.52017C4.61366 3.39486 6.02979 2.65552 7.56876 2.41836C9.10773 2.18121 10.6823 2.4597 12.0449 3.21004C13.4074 3.96039 14.4808 5.14004 15.0961 6.56355C15.7115 7.98706 15.834 9.57371 15.4444 11.074C15.0547 12.5744 14.1751 13.9033 12.9437 14.852C11.7123 15.8006 10.1989 16.3151 8.64163 16.3147V16.3127ZM12.4961 11.0751C12.2849 10.9691 11.2468 10.4624 11.0534 10.3917C10.86 10.321 10.7179 10.2876 10.5777 10.4978C10.4376 10.7079 10.033 11.1812 9.90868 11.3206C9.78434 11.4601 9.66198 11.4777 9.4508 11.3736C8.82894 11.1258 8.25475 10.773 7.75351 10.3308C7.28842 9.90691 6.88933 9.41647 6.56935 8.87563C6.44501 8.6655 6.55553 8.5516 6.6621 8.44751C6.76867 8.34343 6.87327 8.20203 6.97787 8.07831C7.06562 7.97522 7.13807 7.86015 7.193 7.7366C7.22071 7.67834 7.23358 7.61418 7.23049 7.54979C7.22739 7.4854 7.20841 7.42276 7.17523 7.3674C7.12194 7.26332 6.6996 6.22837 6.52395 5.80811C6.3483 5.38784 6.17857 5.45462 6.05029 5.44872C5.922 5.44283 5.78583 5.44872 5.64373 5.44872C5.53683 5.45174 5.43169 5.47667 5.33491 5.52195C5.23813 5.56723 5.15177 5.63189 5.08124 5.71188C4.8428 5.93693 4.65403 6.20889 4.52695 6.51048C4.39987 6.81206 4.33727 7.13666 4.34312 7.46363C4.34312 8.49661 5.09901 9.49621 5.20558 9.63564C5.31216 9.77508 6.69368 11.898 8.81136 12.8073C9.20467 12.9758 9.6065 13.124 10.0152 13.2511C10.4462 13.3811 10.9016 13.4094 11.3455 13.3336C11.752 13.2727 12.5947 12.8249 12.7704 12.3359C12.9461 11.8469 12.948 11.4247 12.8947 11.3363C12.8415 11.248 12.7072 11.1851 12.4961 11.0751Z" fill="currentColor"/>
</symbol></svg>