<svg width="339" height="221" viewBox="0 0 339 221" fill="none" xmlns="http://www.w3.org/2000/svg">
<path d="M0.142464 99.3724C1.6513 92.6149 2.75126 85.7596 4.73708 79.1266C8.85474 65.3894 19.6502 58.0628 34.466 55.9822C45.6216 54.4173 56.9817 54.0173 68.2542 53.1903C82.9239 52.1145 94.6442 47.5621 101.312 34.1716C105.644 25.4669 114.21 19.5007 122.874 14.1748C136.356 5.88798 150.89 0.73094 167.516 0.54422C185.311 0.339717 200.331 6.22585 213.414 16.5577C219.225 21.1457 224.268 26.5872 229.378 31.8776C238.519 41.3469 248.857 48.4334 263.653 46.8419C273.641 45.766 282.042 40.9557 290.734 36.8123C297.84 33.4247 304.898 29.6814 312.461 27.423C321.359 24.7644 328.796 28.3743 333.381 35.9765C337.498 42.8051 338.238 50.2562 338.063 57.8494C337.752 72.1646 333.877 85.8218 328.708 99.2123C317.309 128.758 300.381 155.433 277.457 178.711C260.986 195.444 242.052 209.359 218.145 216.526C202.599 221.185 186.907 221.62 170.806 218.695C140.97 213.28 111.825 205.963 84.0142 194.591C63.8639 186.357 44.9695 176.31 28.9758 162.164C9.59458 145.03 -0.694705 124.526 0.13272 99.3812L0.142464 99.3724Z" fill="#CB9584"/>
</svg>
