<svg width="70" height="70" viewBox="0 0 70 70" fill="none" xmlns="http://www.w3.org/2000/svg">
<g id="Icon">
<rect y="0.0078125" width="70" height="70" rx="35" fill="#638F72"/>
<path id="Vector" d="M50.6041 30.5877C50.9756 22.3355 44.7373 15.2727 39.0045 15.6885C38.623 15.6391 38.2061 15.5876 37.8333 15.5919C48.5111 16.4671 52.4379 30.0185 47.5583 38.3831C43.6818 44.3331 42.6905 46.1466 45.786 52.9882C40.6784 52.9352 35.3369 52.9573 30.2383 52.9734C30.0799 43.374 31.9445 46.3941 22.9258 45.8568C22.77 45.8325 22.7122 45.6668 22.72 45.5342C22.7172 43.5077 22.7197 40.1931 22.7166 38.1429C22.7647 37.1416 20.1782 36.2927 19.3908 35.8345C20.4636 34.1888 21.5118 32.5261 22.5746 30.8733C23.4634 29.4512 24.1415 28.8293 23.9423 27.0375C24.2203 20.1601 31.2792 15.1938 37.8453 15.4696C30.8604 13.7494 23.0726 19.7905 22.6458 26.8928C22.6999 27.6402 22.6951 28.4556 22.1653 29.0533C20.9031 30.9641 19.5431 33.1039 18.2862 35.0351C17.7734 35.6258 17.7456 36.5519 18.5172 36.9381C19.4651 37.3957 20.4521 37.8279 21.3362 38.3909C21.8248 47.3405 18.8367 47.6348 28.9062 47.2017C28.9243 49.2138 28.9258 51.2261 28.9287 53.2389C28.8855 53.8096 29.3866 54.3079 29.9483 54.2873C35.2894 54.2793 40.6445 54.2268 45.9862 54.2172C46.8751 54.3162 47.5951 53.6612 47.0402 52.7953C41.2238 42.1626 51.1882 40.8708 50.6041 30.5877ZM19.1232 35.7091C19.1249 35.7097 19.127 35.7107 19.1286 35.7117C19.1282 35.7116 19.1235 35.7093 19.1232 35.7091ZM21.4615 38.4852L21.4608 38.4846L21.461 38.4844C21.4632 38.4861 21.4615 38.4852 21.4615 38.4852ZM21.9672 38.1143C21.9718 38.1136 21.9773 38.1136 21.9819 38.1143C22.0005 38.1143 21.9928 38.1143 21.9672 38.1143ZM22.9162 45.8787C22.9118 45.8757 22.9016 45.8694 22.8968 45.8666C22.9026 45.869 22.9131 45.8764 22.9182 45.88L22.9162 45.8787ZM29.944 52.975C29.9447 52.975 29.9454 52.9751 29.946 52.9751C29.9426 52.9751 29.9398 52.9752 29.944 52.975ZM30.2408 53.2957C30.2408 53.2928 30.2408 53.2898 30.2408 53.2869C30.2419 53.3033 30.2408 53.3218 30.2408 53.2957ZM46.0653 53.5885C46.064 53.5857 46.0581 53.5736 46.0575 53.5708C46.0601 53.5765 46.0768 53.6116 46.0653 53.5885ZM46.2889 52.9916L46.2779 52.9915C46.2788 52.9912 46.2877 52.9916 46.2889 52.9916ZM44.1026 24.865C44.7025 22.6219 43.3824 20.3536 40.8589 21.0146C38.8901 21.5816 37.5317 23.2826 35.9393 24.4799C35.7533 23.6971 35.486 22.7612 34.9981 22.1792C35.0494 22.3109 35.1678 22.5078 35.1838 22.6222C35.0551 22.4995 34.9559 22.3077 35.0818 22.6226C34.9142 22.3195 34.7362 22.0059 34.4963 21.7607C35.0108 22.7045 35.3479 23.745 35.542 24.8154C26.2561 33.8017 28.1133 16.8965 34.5867 21.6773C27.4364 14.8441 24.6108 35.374 35.6623 26.3785C35.7278 27.5262 35.835 28.6927 35.9538 29.8341C34.6305 30.8643 33.423 32.0425 32.3257 33.3092C31.2888 32.4258 29.9276 31.3133 28.8802 30.4178C23.6023 27.7337 23.3453 42.6157 32.3601 35.073C35.1034 37.713 39.2671 40.6711 41.0953 35.4254C47.2718 36.992 49.7048 28.7839 43.4866 27.0264C43.4886 27.0196 44.1007 24.8713 44.1026 24.865ZM36.2658 26.5796C36.2416 26.3703 36.2166 26.1603 36.1894 25.95C37.434 24.9333 38.6822 23.9103 39.9465 22.9178C40.9626 22.0873 42.9099 21.8449 42.863 23.6224C42.9244 24.4079 42.2702 26.1239 42.091 26.8874C39.9892 26.9235 38.2301 28.1897 36.5842 29.3494C36.4376 28.4407 36.3718 27.5029 36.2658 26.5796ZM40.0767 33.9978L40.0549 34.075C38.4742 33.5367 37.2635 32.2355 36.8604 30.6119C38.3377 29.5222 39.8917 28.2674 41.7671 28.0322C41.2574 29.836 40.5955 32.1741 40.0767 33.9978ZM31.272 34.4225C30.1978 35.4191 28.7176 35.9713 27.2539 35.847C26.1322 35.0306 26.5699 32.8644 27.0466 31.7414C27.6951 30.6612 28.6658 32.0285 29.2876 32.4704C29.9961 33.0801 30.7244 33.6584 31.432 34.2738C31.379 34.3239 31.3262 34.3742 31.272 34.4225ZM39.3305 36.0283C37.5615 38.58 34.8425 35.2808 33.2518 34.0898C34.1614 33.0292 35.151 32.0341 36.2188 31.134C36.6542 32.9344 38.0822 34.3613 39.7969 34.9923C39.7154 35.3563 39.5228 35.7291 39.3305 36.0283ZM43.7862 28.2564C48.0881 30.1822 45.6791 35.6326 41.3681 34.459C41.923 32.5129 42.6217 30.062 43.1821 28.0953C43.3855 28.1365 43.5872 28.1907 43.7862 28.2564Z" fill="white"/>
</g>
</svg>
