<svg width="70" height="70" viewBox="0 0 70 70" fill="none" xmlns="http://www.w3.org/2000/svg">
<g id="Icon">
<rect y="0.0078125" width="70" height="70" rx="35" fill="#638F72"/>
<path id="Vector" d="M52.5 27.029C52.5112 20.3678 46.3057 16.2066 40.2118 16.1075C39.8788 16.1036 39.6106 16.3857 39.622 16.7227C39.6132 17.6835 39.6059 18.6457 39.5992 19.6068C39.5885 20.729 39.5604 22.8507 39.5565 23.9709C39.5443 25.3995 41.3225 25.4327 42.1336 24.647C43.2292 23.7594 44.6621 25.4287 43.64 26.4107C42.9371 27.1064 42.236 26.601 41.5726 26.1726C40.78 25.7903 39.6464 26.0509 39.586 27.0564C39.9028 34.3997 37.8323 32.9238 45.2786 33.0627C45.2641 33.3454 45.0453 33.5241 44.9117 33.754C43.6386 35.8156 46.0128 38.3677 48.1054 37.1075C49.2834 36.4135 49.6456 34.6018 48.6812 33.577C48.121 32.6453 48.5361 32.8614 49.2638 32.7921C50.063 32.6897 50.8774 32.6584 51.6861 32.5234C50.7507 32.4958 47.8825 31.4317 47.6846 32.7777C47.4874 33.7164 48.2983 34.1428 48.2791 34.9589C48.3395 36.2451 46.5015 36.8202 45.9347 35.6234C45.3589 34.5486 46.7091 33.9721 46.5518 32.8718C46.4526 31.6788 45.4478 31.7574 44.5481 31.7625C43.6292 31.761 41.803 31.7461 40.8935 31.7474C40.8857 30.4056 40.8859 28.6579 40.8742 27.3214C41.0974 27.3361 41.2537 27.4874 41.4268 27.6132C43.2117 28.9354 45.8273 27.0018 45.1193 24.8717C44.6874 23.3284 42.6525 22.6167 41.409 23.6292C41.22 23.794 41.0491 23.9238 40.777 23.9153C40.7469 22.0862 40.7468 19.1251 40.7438 17.265C48.8621 17.5538 53.0877 24.275 51.7453 32.0455C51.784 31.9664 51.7947 31.8264 51.8369 31.7658C51.8568 31.8101 51.8633 31.8773 51.8663 31.9172C51.8862 31.9466 51.9033 31.8318 51.9175 31.8083C51.8885 32.0799 51.8499 32.3596 51.7585 32.6152C52.5257 30.8981 52.4432 28.886 52.5 27.029ZM45.4485 33.0614C45.4456 33.0617 45.4428 33.0618 45.4399 33.0614H45.4485ZM45.0473 38.1583C44.0354 38.1494 42.9742 38.1445 41.9642 38.1314C40.9856 38.0991 40.6056 39.1871 40.9356 40.0155C41.1199 40.585 41.6761 40.9392 41.5264 41.5804C41.3368 42.9746 39.2136 42.8061 39.2322 41.3976C39.2604 40.5719 40.0965 40.2926 39.9758 39.1647C39.8251 38.0161 38.8679 38.0997 37.9817 38.1192C36.8978 38.1202 35.1189 38.1259 34.0524 38.1373C34.0422 36.6113 34.0748 35.0737 34.1496 33.5505C34.4104 33.5524 34.6324 33.6612 34.8256 33.8359C35.8013 34.6152 37.3244 34.4064 38.0859 33.4172C39.7592 31.3085 37.1422 28.4206 34.9165 29.8852C34.7107 30.0246 34.5126 30.2105 34.2614 30.2139C34.2819 28.3879 34.3224 26.2152 34.3065 24.3881C34.28 22.6358 34.5323 22.2346 32.5304 22.4603C28.9781 22.6764 25.2665 24.5714 23.6628 27.9104C21.8638 34.4061 23.8656 32.417 18.7244 38.0999C17.6268 38.1673 17.1769 39.8126 17.7494 40.6574C18.4462 41.583 19.631 41.9856 20.5354 42.682C21.0687 43.1583 21.0898 44.2439 21.8173 44.536C21.5238 45.2872 22.4052 45.2419 22.0391 46.7405C20.8134 52.6408 25.6939 51.1454 29.3966 50.4128C30.435 49.9387 29.128 53.7541 31.0095 53.7997C34.5 53.481 38.0183 53.9282 41.5017 53.7559C42.6182 53.3242 42.1593 51.9092 42.1555 50.9799C42.068 49.8414 42.0277 48.7353 42.2689 47.6256C42.2623 46.1243 47.156 38.3128 45.0473 38.1583ZM33.0129 44.0699C33.0129 44.0806 33.0121 44.0661 33.0129 44.064V44.0699ZM33.1763 43.9086L33.1672 43.9085C33.1715 43.9081 33.1759 43.9081 33.1763 43.9086ZM34.154 33.525C34.1579 33.5147 34.1571 33.4848 34.1622 33.4833C34.1724 33.4964 34.1662 33.5161 34.154 33.525ZM34.1035 30.2192C34.1064 30.2187 34.1092 30.2193 34.112 30.2195C34.107 30.2195 34.0972 30.2197 34.1035 30.2192ZM20.6606 37.2927C27.2741 32.2131 20.837 25.2832 33.0628 23.6716C33.074 25.8734 33.1311 28.1333 33.1215 30.3387C33.0945 30.8902 33.5719 31.3839 34.1152 31.3649C34.7841 31.4379 35.2812 30.9367 35.8349 30.6693C38.6652 30.1813 37.768 34.9272 34.8176 32.6981C34.1644 32.4161 33.1988 32.6519 33.229 33.5037C33.2706 35.0542 33.392 36.6068 33.5094 38.1518C33.3537 38.1848 33.2196 38.2763 33.1292 38.4023C31.5957 38.3257 30.0329 38.3435 28.488 38.2918C28.4549 38.0028 28.608 37.7604 28.784 37.5512C29.5052 36.5896 29.3296 35.1219 28.4275 34.3372C26.7431 32.7863 23.9852 34.5178 24.5679 36.7384C24.63 37.2835 25.1483 37.6482 25.2179 38.1599C23.5507 38.1474 21.4701 38.1143 19.7978 38.0978C20.0821 37.8263 20.3647 37.5392 20.6606 37.2927ZM28.4887 38.3083C28.4887 38.3074 28.488 38.3141 28.4881 38.3069V38.3037C28.4882 38.3052 28.4886 38.3069 28.4887 38.3083ZM28.4847 38.2917L28.422 38.2908C28.4294 38.2867 28.4772 38.2592 28.4847 38.2917ZM25.222 38.2879L25.2217 38.3097C25.2201 38.3014 25.2214 38.2933 25.222 38.2848C25.2219 38.2859 25.222 38.2868 25.222 38.2879ZM25.3504 38.1613C25.3508 38.1613 25.3513 38.1611 25.3517 38.1611C25.355 38.1613 25.3533 38.1614 25.3504 38.1613ZM33.3127 53.0805C30.5376 52.6584 30.9942 53.7593 30.9098 50.7475C31.0091 48.6587 29.0698 49.2088 27.7186 49.452C26.7365 49.5822 25.6631 49.7635 24.6794 49.9067C21.7936 49.9895 24.0809 46.4053 23.1857 44.9412C23.9849 44.1548 22.9919 43.7157 22.3811 43.3674C22.0889 42.8696 21.8689 42.1632 21.4276 41.7801C21.0173 41.4689 20.3754 41.1001 19.9441 40.8079C19.4808 40.4591 18.3121 40.1063 18.8763 39.3507C20.675 39.3146 23.17 39.2992 24.9951 39.3017C25.5669 39.3686 26.1898 39.1457 26.3099 38.5129C26.5025 37.5062 25.7727 37.1384 25.5836 36.3336C25.361 34.7033 27.6948 34.1847 28.1895 35.7409C28.4375 36.3889 28.0312 36.9276 27.7079 37.448C27.3755 38.102 27.5126 39.171 28.3953 39.1826C29.9343 39.1292 31.4741 39.0135 33.0084 38.9C33.0087 40.3674 33.0109 42.4385 33.0127 43.9027C30.4483 41.7158 26.956 44.9605 29.4993 47.4704C30.3102 48.1937 31.5977 48.1766 32.4413 47.5043C32.6509 47.3166 32.885 47.151 33.1783 47.1794C33.1773 47.1745 33.1911 47.1778 33.1918 47.1826C33.1918 47.1826 33.1923 47.1829 33.1926 47.1832C33.2239 49.167 33.2767 51.1333 33.5126 53.1007C33.4458 53.094 33.3791 53.0873 33.3127 53.0805ZM44.2742 39.6359C42.498 44.969 40.3649 46.6926 41.3264 52.822C41.1761 53.137 39.993 52.9736 39.6183 53.0565C37.5984 53.1207 35.5754 53.5204 33.5918 53.1086C33.8928 51.0432 34.1503 48.8969 34.0988 46.8235C33.8138 46.0065 32.7611 46.036 32.1255 46.3999C31.8745 46.5436 31.6624 46.7679 31.3751 46.8284C29.2874 47.1979 29.4804 43.8566 31.5033 44.548C32.4007 45.3652 34.2884 45.6546 34.307 43.9742C34.3168 42.4716 34.2982 40.9436 34.2974 39.4412C35.7379 39.4307 37.2797 39.4222 38.7252 39.398C38.7195 39.6796 38.5314 39.8511 38.3896 40.0672C37.3487 41.5554 38.521 43.8314 40.3176 43.8221C41.8766 43.9167 43.1362 42.2596 42.664 40.7525C42.5788 40.1945 41.9999 39.8715 41.9959 39.3075C42.6365 39.3062 43.7168 39.3041 44.3634 39.303C44.3365 39.4146 44.309 39.5263 44.2742 39.6359Z" fill="white"/>
</g>
</svg>
