<svg width="70" height="70" viewBox="0 0 70 70" fill="none" xmlns="http://www.w3.org/2000/svg">
<g id="Icon">
<rect width="70" height="70" rx="35" fill="#638F72"/>
<path id="Vector" d="M53.315 33.957C53.1727 25.7859 47.3113 17.846 39.0766 16.3194C38.2543 16.1155 38.1186 17.3858 37.7325 17.8803C35.3189 22.9038 32.7922 19.9737 31.4741 27.2839C24.8436 31.0229 27.8315 31.856 24.8478 36.9259C23.3332 38.609 21.5823 40.5722 20.1173 42.2998C15.5571 34.058 19.1447 23.3245 27.138 18.696C28.2868 20.8987 31.8096 20.2566 32.042 17.7688C32.1396 16.778 31.5981 15.5729 30.526 15.406C30.3988 15.3574 29.4603 15.3415 29.6599 15.5335C29.6529 15.5678 29.6093 15.6012 29.6495 15.6254C29.6087 15.6452 29.568 15.6358 29.5373 15.6795C29.6222 15.8692 29.8555 15.7864 29.9653 15.9092C31.1286 16.298 31.3487 18.3062 29.9868 18.6509C28.128 19.3034 27.5431 16.5254 29.1417 15.8882C29.2612 15.7437 29.4204 15.6802 29.5373 15.5566C29.0531 14.8107 27.8514 15.2572 27.402 15.8636C26.8804 16.5077 26.6875 17.4229 26.9316 18.2189C13.1579 23.2909 14.0321 44.779 26.852 50.4946C27.333 50.7164 28.011 51.2166 28.4119 50.6047C28.928 49.8051 30.9053 46.6744 31.435 45.8378C31.8691 45.2531 32.7081 45.1082 33.2671 44.585C33.8709 45.4378 35.1845 45.3552 35.8676 44.626C36.8067 45.858 38.9092 45.572 39.4539 44.1147C40.2048 44.8629 41.5597 44.7675 42.153 43.872C44.7645 46.2894 46.0542 41.6896 45.6818 39.6719C47.5611 40.2257 48.9308 37.7961 47.7195 36.3339C48.5471 35.6484 48.6265 34.3316 47.9014 33.5443C48.9123 32.9006 49.1188 31.3839 48.3656 30.4639C48.7579 30.1192 49.022 29.6155 49.0502 29.091L49.0469 29.1505C49.1653 27.9308 47.9732 26.7444 46.7466 27.126C47.0987 26.6722 47.1311 26.0309 47.3032 25.4884C47.5235 24.7704 47.9147 24.0957 48.43 23.5533C56.0329 33.1146 50.7793 47.371 39.4519 50.9872C39.1564 50.0909 38.2181 49.5629 37.3012 49.7848C37.23 49.8164 37.1205 49.8245 37.2293 49.903C37.2223 49.9372 37.1786 49.9707 37.2189 49.9948C37.1782 50.0147 37.1376 50.0052 37.1068 50.0489C37.1915 50.2387 37.4249 50.1558 37.5347 50.2786C38.698 50.6674 38.9182 52.6755 37.5562 53.0203C35.6974 53.6729 35.1124 50.8949 36.7111 50.2576C36.8307 50.1132 36.9898 50.0495 37.1068 49.926C36.5575 49.1047 35.2359 49.716 34.8255 50.4268C32.4762 54.8568 40.3096 56.1273 39.5355 51.2309C47.769 50.5513 53.5967 41.8369 53.315 33.957ZM45.6262 30.9354C46.1434 30.9733 46.7035 30.9268 47.1871 31.1102C47.7276 31.3556 47.7827 32.1637 47.3962 32.573C47.0771 33.1399 45.1718 32.835 45.194 33.3747C45.1484 33.3918 45.1067 33.3797 45.0683 33.4212C45.1684 33.637 45.4262 33.5405 45.5765 33.6476C45.8815 33.7046 46.2441 33.7675 46.5666 33.8537C47.2884 34.1154 47.5602 35.1316 46.7511 35.4814C46.3949 35.6434 46.0069 35.5477 45.6363 35.508C44.9007 35.4306 44.0541 35.4807 44.1264 34.4772L44.1224 34.5494C44.0782 34.1103 44.326 33.7248 44.7321 33.5676C44.7668 33.5084 44.8161 33.4686 44.8704 33.4611C44.9136 33.466 44.9353 33.3698 44.9787 33.3786C45.0219 33.3703 45.0378 33.3061 45.0817 33.2989C44.4283 32.3605 43.8915 30.8475 45.6262 30.9354ZM46.9979 37.8365C47.0009 39.249 44.3959 38.6369 44.548 39.2447C44.5025 39.2618 44.4608 39.2497 44.4223 39.2913C44.5194 39.4742 44.7237 39.4462 44.8935 39.4874C44.9932 39.6103 45.1702 39.4976 45.3041 39.5782C45.3518 40.4421 44.3149 44.6118 42.9964 43.2306C42.6599 42.4557 43.6983 41.6645 43.3902 40.8942C43.4025 40.8798 43.4113 40.8668 43.4153 40.8513C43.4365 40.8379 43.4873 40.8385 43.467 40.8166C43.5684 40.2918 43.7912 39.7986 43.754 39.2526C43.8688 39.3201 44.0162 39.2399 44.133 39.2775C44.1941 39.3017 44.2454 39.2223 44.3023 39.2338C44.3546 39.2366 44.3851 39.1704 44.4358 39.1688C43.7809 38.2359 43.251 36.7111 44.9803 36.8052C45.7644 36.8585 47.0656 36.6952 46.9979 37.8365ZM47.4469 22.7728C46.5055 24.0318 46.2458 25.6566 46.5106 27.1736C46.4036 27.2332 45.667 27.2682 45.8549 27.4135C45.8459 27.4476 45.7988 27.4786 45.84 27.5046C45.7944 27.5218 45.7527 27.5097 45.7142 27.5512C45.83 27.7774 46.1175 27.6673 46.2702 27.8098C47.0034 27.8279 48.0501 28.1535 47.8852 29.0908L47.8889 29.0229C47.7115 29.7823 46.8942 29.7492 46.2822 29.638C45.5463 29.5607 44.7 29.6106 44.7722 28.6073L44.7683 28.6794C44.7242 28.2404 44.9719 27.8548 45.378 27.6977C45.4128 27.6385 45.462 27.5986 45.5164 27.5911C45.5596 27.596 45.5812 27.4998 45.6246 27.5086C45.6678 27.5003 45.6838 27.436 45.7278 27.4289C44.6823 25.9877 42.4931 28.356 43.8438 30.0978C43.4344 30.4647 43.1561 30.9893 43.1302 31.5422L43.1341 31.4701C43.0958 32.0681 43.3885 32.5838 43.7973 32.9918C42.6888 33.4686 42.493 35.0686 43.1978 35.9677C42.7883 36.3346 42.51 36.8593 42.4841 37.4122L42.4882 37.34C42.495 37.6476 42.5109 37.9867 42.6922 38.2443C42.1496 38.7242 42.5097 40.0423 42.4727 40.7282C41.9589 41.4608 41.6581 42.3889 41.191 43.1603C40.9825 43.5348 40.2638 43.447 40.2372 43.0107C40.2899 41.891 41.2601 41.5648 40.9384 40.3554C41.1023 39.4374 41.2929 38.4934 41.1777 37.559C41.1562 37.5347 41.1167 37.5096 41.131 37.4867C41.0655 37.387 41.0267 37.2488 41.009 37.1221C40.9769 37.0966 40.8983 37.0622 40.9015 37.0358C40.9086 37.019 40.8179 37.0029 40.8234 36.9875C40.8043 36.9689 40.749 36.9599 40.7406 36.9462C39.2631 37.04 40.0032 39.3137 39.9388 40.3001C39.2347 41.2779 38.7873 42.5599 38.1846 43.6229C37.9749 44.1129 37.2408 44.1802 36.9361 43.7655C36.5635 42.7936 37.6324 41.6877 37.9627 40.7845L37.9459 40.7764C38.0635 40.5394 38.0252 40.2659 37.8712 40.0713C37.8651 40.0315 37.9527 40.0304 37.928 40.0021C38.0559 39.1734 38.2093 38.315 38.0577 37.4801C38.0353 37.4588 37.9949 37.4374 38.0083 37.4166C37.9902 37.4075 37.9839 37.3933 37.9873 37.3826C37.9937 37.3681 37.9493 37.3533 37.9454 37.3387C37.9422 37.2286 37.8712 37.1923 37.8721 37.0922C37.8393 37.0706 37.7591 37.0412 37.7613 37.0177C37.7677 37.0026 37.6764 36.9904 37.6813 36.9766C37.6605 36.9602 37.6061 36.9538 37.5969 36.9419C36.144 37.0615 36.9377 39.0315 36.9261 39.9755C36.8562 40.0341 36.7968 40.1088 36.7549 40.1961L36.7382 40.188C36.2876 41.0582 35.7202 41.8637 35.5122 42.8639C35.3582 43.9044 34.7406 44.8389 33.5994 44.2486C35.7261 40.8806 35.8119 33.6447 35.0249 29.786C34.2959 34.0996 34.6594 38.773 32.8761 42.8538C32.554 43.8005 31.5033 43.941 30.7946 44.5353C29.6519 45.7664 28.5597 47.9358 27.5934 49.3356C24.8782 48.0143 22.5073 45.989 20.8312 43.4719C22.164 41.9468 23.4756 40.4006 24.7896 38.8607C25.5456 37.9754 26.4904 37.0874 26.8093 35.9294C27.1 34.8915 27.5486 33.1501 27.8266 32.1071C28.3873 29.9574 32.0694 28.3124 33.8994 26.9893C34.9768 26.8784 36.2136 26.9679 37.2967 26.9086C37.9201 26.8508 38.5965 26.8767 38.9209 27.5267C39.7531 29.9917 36.9359 29.5584 35.432 29.7241C35.2255 29.7534 35.6375 29.7598 35.6803 29.7811C35.5395 29.8516 35.5669 29.8233 35.7126 29.852C35.5262 29.8589 35.2902 29.8438 35.1194 29.8647C36.0929 30.0723 37.0698 30.0559 38.049 30.1351C40.1204 29.9142 40.4433 26.6803 38.4239 26.0866C37.3853 25.8952 36.3138 25.9607 35.2549 25.9224C33.6934 25.8876 33.5215 25.8744 32.2243 26.7923C34.4024 20.5706 36.5519 23.4839 39.274 17.7165C42.4413 18.4755 45.3575 20.2436 47.5657 22.6313C47.5229 22.6754 47.4818 22.7212 47.4469 22.7728Z" fill="white"/>
</g>
</svg>
