<svg width="70" height="70" viewBox="0 0 70 70" fill="none" xmlns="http://www.w3.org/2000/svg">
<g id="Icon">
<rect y="0.0078125" width="70" height="70" rx="35" fill="#638F72"/>
<path id="Vector" d="M53 31.169C52.9255 28.85 49.5264 28.5112 48.9814 30.7602C48.5866 33.0603 48.1826 35.435 47.7507 37.7322C46.4406 35.989 44.8766 37.2807 43.577 38.2424C39.2022 40.827 38.8576 42.9109 38.7301 47.761C38.4818 47.8177 38.1535 47.789 37.947 47.9144C37.9806 47.9375 38.0356 47.922 38.0621 47.9544C38.0386 48.0031 37.9571 48.0204 38.0514 48.0445C37.963 48.0658 37.8684 48.0565 37.7879 48.1032C40.1686 48.4927 42.6974 48.3692 45.1345 48.4531C45.4229 48.4043 45.1855 49.4525 45.2404 49.6763C45.2084 50.5196 45.2196 51.5846 45.1644 52.4115C42.7788 52.3171 39.9796 52.6243 37.7049 52.3408C37.6444 51.0837 37.4932 49.8375 37.4704 48.576C37.4563 48.4689 37.3951 48.3574 37.4991 48.2602C37.5545 48.2179 37.5452 48.117 37.6207 48.0958C37.6859 48.063 37.7011 47.9986 37.7878 47.9829C36.6531 47.4078 36.7001 49.1636 36.5405 49.8601C36.3917 52.0693 35.8426 54.0939 38.8954 53.7798C40.7027 53.809 42.6608 53.7186 44.468 53.7036C46.5327 53.7853 46.5336 52.8448 46.4238 51.1037C46.3057 49.7668 47.0109 47.1086 44.8501 47.3565C44.957 46.9422 45.3385 46.611 45.696 46.4102C46.9414 45.4054 48.1944 44.3769 49.4813 43.4189C50 42.9356 50.7352 42.5567 51.0076 41.8571C51.7339 38.3226 52.4246 34.73 53 31.169ZM51.7959 31.2919C51.1557 34.6939 50.7375 38.2716 49.9907 41.6328C48.8822 42.8471 44.6122 46.0341 44.4883 47.3631C42.5804 47.3906 40.6429 47.3935 38.7584 47.7565C40.1119 45.6861 39.5813 42.5248 41.8425 41.0375C43.0817 40.1671 44.4516 39.2589 45.6924 38.3966C46.1758 37.9347 46.9884 38.4754 46.6703 39.0957C46.6109 39.202 46.5224 39.296 46.492 39.4164C45.8283 39.7387 45.1153 40.1055 44.6118 40.6656C44.6099 40.6946 44.6184 40.7377 44.5958 40.7384C44.5999 40.7573 44.5937 40.7699 44.584 40.773C44.5676 40.7828 44.5923 40.8318 44.5657 40.8422C44.4977 40.8987 44.5163 40.9695 44.4463 41.0182C44.4696 41.1185 44.4533 41.1451 44.4759 41.2295C44.4769 41.2556 44.5036 41.3006 44.5006 41.3142C45.3798 42.3552 46.2953 40.812 46.9759 40.28C49.298 39.9077 49.183 36.7829 49.564 34.9633C49.7803 33.7097 50 32.355 50.2229 31.1C50.3892 30.1778 51.8471 30.3483 51.7959 31.2919ZM34.4433 52.3593C34.3834 51.2017 34.2637 50.0547 34.2117 48.8946C34.3026 48.2467 33.7734 47.5338 33.0908 47.7319C33.8488 48.1686 33.3185 49.1812 33.2777 49.8602C33.1242 50.6809 33.2834 51.6715 33.0962 52.4186C30.6905 52.2243 27.8379 52.6856 25.585 52.3738C25.5211 51.2048 25.5386 49.7492 25.5314 48.5672C25.5232 48.4148 25.6889 48.3501 25.8216 48.3651C28.1823 48.3122 30.6442 48.3544 32.932 47.8005C32.8984 47.7774 32.8433 47.7929 32.8168 47.7605C32.8403 47.7119 32.9219 47.6944 32.8275 47.6703C32.9159 47.6491 33.0105 47.6584 33.091 47.6117C32.7488 47.4132 32.3365 47.5135 31.9626 47.4646C32.1931 43.2262 31.7236 40.8167 27.894 38.6377C26.4929 37.6669 24.5823 35.7026 23.1125 37.6822C22.6489 35.4184 22.2422 33.1078 21.813 30.8358C21.2097 28.4367 17.6458 29.1561 18.0287 31.6042C18.6258 34.9262 19.245 38.3566 19.9083 41.6622C20.1614 42.5113 21.1043 42.9533 21.7094 43.5236C22.8504 44.4275 24.0433 45.2648 25.2307 46.1032C25.6784 46.4226 26.2162 46.697 26.3688 47.2705C23.7846 46.9147 24.4637 49.4609 24.3203 51.15C24.1235 53.7509 24.8599 53.8352 27.1991 53.762C28.221 53.7732 29.4381 53.7422 30.4607 53.7433C31.7449 53.595 34.4033 54.3646 34.4433 52.3593ZM26.2321 46.2728C24.8827 45.0195 23.441 43.8482 22.0998 42.5771C21.6994 42.1636 20.9336 41.826 20.846 41.2072C20.3699 37.8355 19.5188 34.4198 19.251 31.0454C19.4509 30.4706 20.3167 30.4589 20.5294 31.0232C21.3372 33.5669 21.0656 38.5735 23.2016 40.0444L23.2086 40.0374C23.3658 40.1759 23.5648 40.2942 23.7792 40.2716C23.7682 40.3059 23.7667 40.324 23.7853 40.3216C24.3316 40.8239 24.8907 41.3633 25.5888 41.6385C25.6166 41.6304 25.6541 41.6076 25.6625 41.6286C25.6787 41.6182 25.6927 41.6198 25.6989 41.6277C25.7062 41.6397 25.7411 41.6107 25.7538 41.6145C25.8036 41.6264 25.8319 41.6621 25.89 41.645C25.9316 41.632 25.9427 41.6645 25.9761 41.6729C26.0617 41.6167 26.0932 41.6224 26.1639 41.5724C26.188 41.5625 26.2211 41.5219 26.2348 41.5201C26.9094 40.3254 25.123 39.9936 24.3839 39.5345C24.373 39.3053 24.1498 39.1504 24.1179 38.9245C24.0131 38.4575 24.5208 38.0374 24.9598 38.2168C26.6576 39.4872 28.6825 40.4644 30.1333 42.0179C31.1878 43.599 30.9966 45.6968 31.738 47.4249C30.0799 47.4112 28.3925 47.2512 26.7331 47.2724C26.7078 46.9077 26.5184 46.5118 26.2321 46.2728ZM36.7657 39.5956C37.8402 38.7146 39.2094 37.5448 40.274 36.6667C46.3762 37.1096 45.2978 36.6012 45.4201 31.2064C46.3785 31.1835 48.7127 31.5789 47.9399 29.8854C47.331 28.8844 46.1247 26.8794 45.5132 25.8831C44.7094 24.622 44.7051 24.7748 44.557 23.2653C40.7976 6.95399 16.7979 17.5864 27.0484 31.2215C27.7761 32.3931 29.6929 32.9181 29.8796 33.8833C30.0211 32.7055 28.7729 32.2218 28.1783 31.4004C18.0184 18.3955 41.691 8.7061 43.4316 24.8285C44.3278 26.6235 45.6191 28.2771 46.6263 30.0305C46.5496 30.0389 45.3531 30.0266 45.2372 30.0327C44.2881 29.9624 44.2075 30.669 44.2611 31.4316C44.2317 32.5922 44.3368 34.3533 44.2444 35.4978C42.9067 35.9121 41.4606 35.6092 40.0758 35.6147C39.6333 35.6746 39.0803 36.3835 38.6881 36.657C37.7021 37.5009 36.1564 38.821 35.1797 39.6733C35.4734 37.9738 35.2815 36.2257 35.2053 34.5159C35.0936 33.1026 35.3178 31.6125 34.7991 30.2672C38.8096 28.9258 44.1156 20.1508 37.1869 19.5043C37.2267 19.5306 37.2965 19.5146 37.3251 19.5538C37.2861 19.6006 37.1954 19.6074 37.3028 19.6415C37.1983 19.6542 37.0856 19.642 36.9898 19.6831C42.51 21.0463 37.9309 27.643 34.6589 28.9725C32.1331 27.7704 27.7301 22.8952 30.9771 20.4719C31.9205 19.8683 33.295 19.8448 34.1363 20.6401C34.8783 21.6327 35.2123 19.9533 36.9898 19.5628C36.2677 19.1398 35.3956 19.3913 34.7302 19.839C28.6058 15.6225 24.9301 25.5028 34.2595 30.1669C33.9309 33.2474 33.7808 36.5925 34.1816 39.6999C32.8645 38.4544 31.5247 37.2397 30.1927 36.0126C30.1159 35.4666 30.1158 34.8152 29.972 34.3227C29.9541 34.4175 29.9779 34.5701 29.9495 34.6457C29.8819 34.5371 29.873 34.3892 29.8581 34.621C29.8238 34.3807 29.8198 34.1183 29.7599 33.8899C29.7168 34.5935 29.5741 35.6699 29.8561 36.309C30.5415 37.0617 31.2522 37.8252 31.9763 38.5411C32.7343 39.3771 33.51 40.2048 34.3001 41.0124C34.8162 41.4794 35.3168 40.67 35.7328 40.4123C36.0954 40.1752 36.4324 39.8921 36.7657 39.5956ZM45.4257 30.79C45.426 30.7946 45.4255 30.8088 45.4254 30.8137C45.4254 30.8107 45.4257 30.7925 45.4257 30.79ZM44.2819 35.5233C44.2825 35.524 44.2778 35.5204 44.2766 35.5192C44.2783 35.5205 44.28 35.5218 44.2819 35.5233ZM44.2444 35.4987C44.2443 35.4996 44.2447 35.4999 44.2444 35.4987C44.2443 35.4987 44.2445 35.4987 44.2444 35.4987ZM37.3702 22.4006C37.2366 23.5076 36.087 24.6294 35.4069 25.534C34.4206 27.0485 34.0014 26.6569 33.1256 25.3485C32.7442 24.8793 32.3519 24.4372 32.0952 23.8963C32.0812 23.8189 31.932 23.8094 31.9566 23.7289C31.9461 23.5969 31.7532 23.5204 31.8493 23.3544C31.8954 23.342 31.9091 23.3672 31.9458 23.3758C31.9517 23.3161 32.0404 23.3495 32.0228 23.2662C32.9808 23.426 33.6062 24.2719 34.2607 24.9282C34.882 24.1206 36.178 21.8732 37.3519 22.2912C37.3394 22.3208 37.3829 22.3664 37.3702 22.4006Z" fill="white"/>
</g>
</svg>
