<svg width="80" height="15" viewBox="0 0 80 15" fill="none" xmlns="http://www.w3.org/2000/svg">
<g id="logo" clip-path="url(#clip0_2128_10202)">
<g id="media bay">
<path id="Vector" d="M71.5665 14.8465L71.5735 13.4953C71.733 13.5328 71.9019 13.561 72.0802 13.5798C72.2632 13.6032 72.4391 13.6149 72.608 13.6149C73.0255 13.6196 73.361 13.5469 73.6143 13.3968C73.8676 13.2467 74.1045 12.9488 74.325 12.5031L74.508 11.8697L71.1372 4.19922H73.0372L75.0499 9.01968C75.1249 9.18857 75.1883 9.35512 75.2399 9.51932C75.2962 9.68352 75.3431 9.86648 75.3806 10.0682H75.4158C75.4486 9.86648 75.4909 9.68352 75.5425 9.51932C75.5988 9.35512 75.6621 9.18857 75.7325 9.01968L77.7662 4.19922H79.5255L75.8662 12.679C75.5003 13.4672 75.0757 14.0513 74.5925 14.4313C74.1139 14.8113 73.5181 15.0013 72.805 15.0013C72.5376 15.0013 72.3077 14.9872 72.1154 14.959C71.923 14.9356 71.7401 14.8981 71.5665 14.8465Z" fill="#ADACAC"/>
<path id="Vector_2" d="M62.1826 9.69425C62.1826 8.8967 62.5204 8.28212 63.196 7.85051C63.8762 7.4189 64.7676 7.20309 65.8701 7.20309L68.0516 7.21013V6.40789C68.0516 6.03727 67.9179 5.75109 67.6505 5.54935C67.3831 5.34293 66.928 5.23972 66.2853 5.23972C65.6519 5.23972 65.1898 5.34997 64.899 5.57047C64.6128 5.79096 64.4697 6.07245 64.4697 6.41493V6.52752L62.6823 6.52048V6.39381C62.6823 5.69948 63.0153 5.12712 63.6815 4.67675C64.3524 4.22168 65.2508 3.99414 66.3768 3.99414C67.5121 3.99414 68.3824 4.19353 68.9876 4.5923C69.5974 4.99107 69.9024 5.608 69.9024 6.44307V10.2994C69.9024 10.595 69.9305 10.8765 69.9868 11.1439C70.0431 11.4066 70.1252 11.6318 70.2331 11.8195V11.9321H68.4246C68.3448 11.8054 68.2768 11.6435 68.2205 11.4465C68.1689 11.2495 68.1337 11.0501 68.1149 10.8483C67.9085 11.1627 67.5496 11.4418 67.0383 11.6858C66.5269 11.9297 65.8818 12.0517 65.103 12.0517C64.2398 12.0517 63.5361 11.8523 62.9919 11.4535C62.4524 11.0501 62.1826 10.4636 62.1826 9.69425ZM64.0264 9.56054C64.0264 9.964 64.1671 10.276 64.4486 10.4965C64.7301 10.717 65.1711 10.8272 65.7716 10.8272C66.3721 10.8272 66.9022 10.6701 67.362 10.3557C67.8264 10.0414 68.0587 9.68017 68.0587 9.27202V8.30089L66.2571 8.29385C65.5112 8.29385 64.9529 8.40175 64.5823 8.61756C64.2117 8.83337 64.0264 9.14769 64.0264 9.56054Z" fill="#ADACAC"/>
<path id="Vector_3" d="M52.5947 11.9327V1.3418H54.4385V5.11372C54.7293 4.79001 55.1047 4.53198 55.5644 4.33963C56.0242 4.14259 56.5731 4.04407 57.2111 4.04407C58.3042 4.04407 59.1745 4.40531 59.8219 5.12779C60.4693 5.85028 60.793 6.78387 60.793 7.92859V8.14674C60.793 9.29614 60.4646 10.2391 59.8078 10.9757C59.1557 11.7122 58.2878 12.0805 57.2041 12.0805C56.566 12.0805 55.9984 11.9773 55.5011 11.7709C55.0085 11.5598 54.6472 11.3017 54.4174 10.9968H54.4033L54.3611 11.9327H52.5947ZM54.4385 9.5401C54.6027 9.84035 54.8724 10.1078 55.2477 10.3423C55.6231 10.5769 56.0922 10.6942 56.6552 10.6942C57.4246 10.6942 57.9922 10.4596 58.3582 9.99048C58.7241 9.52133 58.9071 8.92083 58.9071 8.18896V7.90044C58.9071 7.17795 58.7241 6.58683 58.3582 6.12707C57.9922 5.66731 57.4152 5.43743 56.627 5.43743C56.0828 5.43743 55.6207 5.55471 55.2407 5.78929C54.8654 6.01917 54.598 6.28658 54.4385 6.59152V9.5401Z" fill="#ADACAC"/>
<path id="Vector_4" d="M38.7466 9.69425C38.7466 8.8967 39.0844 8.28212 39.7599 7.85051C40.4402 7.4189 41.3316 7.20309 42.4341 7.20309L44.6156 7.21013V6.40789C44.6156 6.03727 44.4819 5.75109 44.2145 5.54935C43.947 5.34293 43.492 5.23972 42.8493 5.23972C42.2159 5.23972 41.7538 5.34997 41.4629 5.57047C41.1768 5.79096 41.0337 6.07245 41.0337 6.41493V6.52752L39.2462 6.52048V6.39381C39.2462 5.69948 39.5793 5.12712 40.2455 4.67675C40.9164 4.22168 41.8148 3.99414 42.9407 3.99414C44.0761 3.99414 44.9463 4.19353 45.5515 4.5923C46.1614 4.99107 46.4664 5.608 46.4664 6.44307V10.2994C46.4664 10.595 46.4945 10.8765 46.5508 11.1439C46.6071 11.4066 46.6892 11.6318 46.7971 11.8195V11.9321H44.9885C44.9088 11.8054 44.8408 11.6435 44.7845 11.4465C44.7329 11.2495 44.6977 11.0501 44.6789 10.8483C44.4725 11.1627 44.1136 11.4418 43.6022 11.6858C43.0909 11.9297 42.4458 12.0517 41.667 12.0517C40.8038 12.0517 40.1001 11.8523 39.5559 11.4535C39.0163 11.0501 38.7466 10.4636 38.7466 9.69425ZM40.5903 9.56054C40.5903 9.964 40.7311 10.276 41.0126 10.4965C41.294 10.717 41.735 10.8272 42.3355 10.8272C42.936 10.8272 43.4662 10.6701 43.9259 10.3557C44.3904 10.0414 44.6226 9.68017 44.6226 9.27202V8.30089L42.8211 8.29385C42.0752 8.29385 41.5169 8.40175 41.1463 8.61756C40.7756 8.83337 40.5903 9.14769 40.5903 9.56054Z" fill="#ADACAC"/>
<path id="Vector_5" d="M35.0632 11.9337V4.19989H36.9281V11.9337H35.0632ZM34.9014 2.56023C34.9014 2.27405 34.9952 2.03479 35.1829 1.84244C35.3752 1.6454 35.6473 1.54688 35.9992 1.54688C36.351 1.54688 36.6208 1.64305 36.8084 1.8354C36.9961 2.02775 37.0899 2.26936 37.0899 2.56023C37.0899 2.84641 36.9938 3.08801 36.8014 3.28506C36.6137 3.4821 36.344 3.58062 35.9921 3.58062C35.6403 3.58062 35.3705 3.4821 35.1829 3.28506C34.9952 3.08801 34.9014 2.84641 34.9014 2.56023Z" fill="#ADACAC"/>
<path id="Vector_6" d="M24.6309 8.16785V7.9497C24.6309 6.80968 24.9616 5.87608 25.6231 5.1489C26.2893 4.41704 27.1689 4.05111 28.262 4.05111C28.9141 4.05111 29.4677 4.14963 29.9228 4.34667C30.3826 4.53902 30.7415 4.78532 30.9995 5.08557V1.3418H32.8292V11.9327H31.0769L31.0347 10.9264H31.0206C30.786 11.2501 30.4295 11.5246 29.951 11.7498C29.4724 11.9703 28.9095 12.0805 28.262 12.0805C27.1455 12.0805 26.2611 11.7169 25.609 10.9898C24.9569 10.2579 24.6309 9.31725 24.6309 8.16785ZM26.5168 8.20304C26.5168 8.93959 26.7021 9.5401 27.0728 10.0045C27.4481 10.4643 28.0275 10.6942 28.8109 10.6942C29.3458 10.6942 29.8008 10.5816 30.1761 10.3564C30.5515 10.1265 30.8212 9.85912 30.9854 9.55417V6.55634C30.8259 6.2467 30.5585 5.98164 30.1832 5.76114C29.8126 5.54064 29.3551 5.43039 28.8109 5.43039C28.0275 5.43039 27.4481 5.66496 27.0728 6.13411C26.7021 6.59856 26.5168 7.19437 26.5168 7.92155V8.20304Z" fill="#ADACAC"/>
<path id="Vector_7" d="M15.2612 8.16014V7.94903C15.2612 6.76209 15.6436 5.80738 16.4083 5.0849C17.173 4.35773 18.177 3.99414 19.4202 3.99414C20.6587 3.99414 21.6181 4.33662 22.2984 5.02157C22.9787 5.70652 23.3188 6.64481 23.3188 7.83643V8.45571H16.3379V7.32272H21.4821V7.39309C21.4868 6.79259 21.339 6.30233 21.0387 5.92232C20.7385 5.53763 20.1755 5.34528 19.3498 5.34528C18.6273 5.34528 18.0691 5.5775 17.675 6.04196C17.2856 6.50641 17.0909 7.10457 17.0909 7.83643V8.21644C17.0909 8.97646 17.2973 9.59104 17.7102 10.0602C18.123 10.5246 18.7446 10.7569 19.575 10.7569C20.1145 10.7569 20.5743 10.6654 20.9543 10.4824C21.339 10.2994 21.6416 10.0766 21.8621 9.81388L23.2203 10.5739C22.9482 11.0149 22.5048 11.3855 21.8902 11.6858C21.2804 11.9813 20.5156 12.1291 19.5961 12.1291C18.2262 12.1291 17.1613 11.7679 16.4013 11.0454C15.6412 10.3229 15.2612 9.36115 15.2612 8.16014Z" fill="#ADACAC"/>
<path id="Vector_8" d="M0.543457 11.9328V4.19896H2.30979L2.35201 5.32491H2.36608C2.68979 4.90268 3.08622 4.58366 3.55536 4.36786C4.0292 4.14736 4.55933 4.03711 5.14576 4.03711C5.74627 4.03711 6.26233 4.1544 6.69394 4.38897C7.12555 4.62354 7.43754 4.97071 7.62989 5.43047H7.63692C7.9794 4.97071 8.41336 4.62354 8.9388 4.38897C9.46424 4.1544 10.046 4.03711 10.684 4.03711C11.5379 4.03711 12.2275 4.27872 12.7529 4.76194C13.2784 5.24516 13.5411 6.03801 13.5411 7.1405V11.9328H11.6833V7.18976C11.6786 6.58456 11.5332 6.14826 11.247 5.88085C10.9608 5.61343 10.5433 5.47973 9.99437 5.47973C9.52523 5.47973 9.12176 5.59701 8.78398 5.83159C8.45089 6.06147 8.17878 6.35703 7.96767 6.71827V11.9328H6.10986V7.20384C6.10517 6.58926 5.95973 6.14826 5.67355 5.88085C5.38737 5.61343 4.96984 5.47973 4.42094 5.47973C3.96117 5.47973 3.56006 5.59701 3.21758 5.83159C2.8798 6.06147 2.60535 6.35937 2.39423 6.72531V11.9328H0.543457Z" fill="#ADACAC"/>
</g>
</g>
<defs>
<clipPath id="clip0_2128_10202">
<rect width="80" height="15" fill="white"/>
</clipPath>
</defs>
</svg>
