<svg width="50" height="34" viewBox="0 0 50 34" fill="none" xmlns="http://www.w3.org/2000/svg">
<g id="MasterCard">
<g id="master card">
<path id="Vector" d="M40.2709 17.0004C40.2709 22.2584 36.1356 26.5826 31.0021 26.5826C25.9162 26.5826 21.7334 22.2584 21.7334 17.0004C21.7334 11.7425 25.8687 7.41818 30.9546 7.41818C36.1356 7.41818 40.2709 11.7425 40.2709 17.0004Z" fill="#F9B50B"/>
<path id="Vector_2" d="M27.865 17.0496C27.865 16.3616 27.7699 15.6736 27.6748 15.0348H21.971C22.0185 14.6908 22.1136 14.396 22.2087 14.0029H27.2946C27.1995 13.6589 27.0569 13.3149 26.9143 12.971H22.5889C22.7315 12.627 22.9216 12.3321 23.1118 11.939H26.3915C26.2013 11.5951 25.9637 11.2511 25.6785 10.9071H23.8723C24.1575 10.5631 24.4427 10.2683 24.8229 9.9243C23.2068 8.35184 21.0204 7.41818 18.5962 7.41818C13.5578 7.5656 9.375 11.7425 9.375 17.0004C9.375 22.2584 13.5103 26.5826 18.6438 26.5826C21.0679 26.5826 23.2068 25.5998 24.8704 24.0765C25.2032 23.7817 25.4884 23.4377 25.8211 23.0446H23.9198C23.6821 22.7497 23.4445 22.4058 23.2544 22.0618H26.4865C26.6767 21.767 26.8668 21.423 27.0094 21.0299H22.684C22.5414 20.735 22.3988 20.391 22.3037 19.9979H27.3896C27.6748 19.1134 27.865 18.1306 27.865 17.0496Z" fill="#C8191C"/>
<path id="Vector_3" d="M21.9235 19.4575L22.0661 18.573C22.0186 18.573 21.9235 18.6221 21.8285 18.6221C21.4957 18.6221 21.4482 18.4256 21.4957 18.3273L21.7809 16.5583H22.3038L22.4464 15.5755H21.9711L22.0661 14.9858H21.0679C21.0679 14.9858 20.4976 18.3273 20.4976 18.7204C20.4976 19.3101 20.8303 19.6049 21.3056 19.6049C21.5908 19.6049 21.8285 19.5067 21.9235 19.4575Z" fill="white"/>
<path id="Vector_4" d="M22.2563 17.835C22.2563 19.2601 23.207 19.6041 23.9675 19.6041C24.6805 19.6041 25.0132 19.4566 25.0132 19.4566L25.2033 18.4738C25.2033 18.4738 24.6805 18.7195 24.1576 18.7195C23.0644 18.7195 23.2545 17.8842 23.2545 17.8842H25.2509C25.2509 17.8842 25.3935 17.2453 25.3935 16.9505C25.3935 16.3117 25.0607 15.4763 23.9675 15.4763C23.0169 15.4272 22.2563 16.5574 22.2563 17.835ZM23.9675 16.3608C24.4904 16.3608 24.3953 16.9997 24.3953 17.0488H23.3021C23.3496 16.9997 23.4446 16.3608 23.9675 16.3608Z" fill="white"/>
<path id="Vector_5" d="M30.1942 19.4572L30.3843 18.327C30.3843 18.327 29.909 18.5727 29.5287 18.5727C28.8633 18.5727 28.5306 18.0322 28.5306 17.3933C28.5306 16.1649 29.101 15.526 29.8139 15.526C30.2893 15.526 30.717 15.8209 30.717 15.8209L30.8596 14.7398C30.8596 14.7398 30.2893 14.4941 29.7189 14.4941C28.5781 14.4941 27.4849 15.526 27.4849 17.4425C27.4849 18.7201 28.0552 19.5555 29.2435 19.5555C29.6713 19.6046 30.1942 19.4572 30.1942 19.4572Z" fill="white"/>
<path id="Vector_6" d="M16.5525 15.4287C15.887 15.4287 15.3642 15.6253 15.3642 15.6253L15.2216 16.5098C15.2216 16.5098 15.6494 16.3132 16.3148 16.3132C16.6475 16.3132 16.9327 16.3624 16.9327 16.6572C16.9327 16.8538 16.8852 16.9029 16.8852 16.9029H16.4574C15.6018 16.9029 14.6987 17.2469 14.6987 18.4262C14.6987 19.3599 15.2691 19.5565 15.6494 19.5565C16.3148 19.5565 16.6475 19.1142 16.6951 19.1142L16.6475 19.5073H17.4556L17.8358 16.7064C17.8358 15.4779 16.8852 15.4287 16.5525 15.4287ZM16.7426 17.6891C16.7426 17.8366 16.6475 18.6719 16.0772 18.6719C15.792 18.6719 15.6969 18.4262 15.6969 18.2788C15.6969 18.0331 15.8395 17.6891 16.6 17.6891C16.6951 17.6891 16.7426 17.6891 16.7426 17.6891Z" fill="white"/>
<path id="Vector_7" d="M18.7864 19.5555C19.0241 19.5555 20.2599 19.6046 20.2599 18.2287C20.2599 16.9511 19.0716 17.1968 19.0716 16.7054C19.0716 16.4597 19.2618 16.3614 19.5945 16.3614C19.7371 16.3614 20.2599 16.4105 20.2599 16.4105L20.4025 15.4769C20.4025 15.4769 20.0698 15.3786 19.4519 15.3786C18.7389 15.3786 17.9784 15.6734 17.9784 16.7054C17.9784 17.8847 19.2142 17.7864 19.2142 18.2287C19.2142 18.5235 18.8815 18.5727 18.6438 18.5727C18.2161 18.5727 17.7407 18.4253 17.7407 18.4253L17.5981 19.3589C17.6932 19.4572 17.9784 19.5555 18.7864 19.5555Z" fill="white"/>
<path id="Vector_8" d="M38.3693 14.6418L38.1792 16.0177C38.1792 16.0177 37.7989 15.5263 37.2286 15.5263C36.3255 15.5263 35.5649 16.6565 35.5649 17.9832C35.5649 18.8186 35.9452 19.654 36.8008 19.654C37.3712 19.654 37.7514 19.2609 37.7514 19.2609L37.7039 19.6049H38.7021L39.415 14.74L38.3693 14.6418ZM37.894 17.2953C37.894 17.8358 37.6564 18.5729 37.086 18.5729C36.7532 18.5729 36.5631 18.2781 36.5631 17.7376C36.5631 16.9022 36.8958 16.4108 37.3712 16.4108C37.7039 16.4599 37.894 16.7056 37.894 17.2953Z" fill="white"/>
<path id="Vector_9" d="M11.1811 19.5066L11.7515 15.8702L11.8466 19.5066H12.512L13.7954 15.8702L13.2725 19.5066H14.3182L15.1263 14.6418H13.5102L12.512 17.6393L12.4645 14.6418H11.0385L10.2305 19.5066H11.1811Z" fill="white"/>
<path id="Vector_10" d="M26.3916 19.5066C26.6768 17.8358 26.7243 16.4599 27.4373 16.7056C27.5323 16.0668 27.6749 15.7719 27.77 15.5262H27.5799C27.1521 15.5262 26.7718 16.1159 26.7718 16.1159L26.8669 15.5754H25.9163L25.2983 19.5066H26.3916Z" fill="white"/>
<path id="Vector_11" d="M32.4758 15.4287C31.8104 15.4287 31.2875 15.6253 31.2875 15.6253L31.1449 16.5098C31.1449 16.5098 31.5727 16.3132 32.2382 16.3132C32.5709 16.3132 32.8561 16.3624 32.8561 16.6572C32.8561 16.8538 32.8085 16.9029 32.8085 16.9029H32.3808C31.5252 16.9029 30.6221 17.2469 30.6221 18.4262C30.6221 19.3599 31.1925 19.5565 31.5727 19.5565C32.2382 19.5565 32.5709 19.1142 32.6184 19.1142L32.5709 19.5073H33.474L33.8542 16.7064C33.8542 15.4779 32.8085 15.4287 32.4758 15.4287ZM32.7135 17.6891C32.7135 17.8366 32.6184 18.6719 32.048 18.6719C31.7628 18.6719 31.6678 18.4262 31.6678 18.2788C31.6678 18.0331 31.8104 17.6891 32.5709 17.6891C32.6659 17.6891 32.6659 17.6891 32.7135 17.6891Z" fill="white"/>
<path id="Vector_12" d="M34.6147 19.5066C34.8999 17.8358 34.9474 16.4599 35.6604 16.7056C35.7555 16.0668 35.8981 15.7719 35.9932 15.5262H35.803C35.3752 15.5262 34.995 16.1159 34.995 16.1159L35.09 15.5754H34.1394L33.5215 19.5066H34.6147Z" fill="white"/>
</g>
</g>
</svg>
