<svg width="50" height="34" viewBox="0 0 50 34" fill="none" xmlns="http://www.w3.org/2000/svg">
<g id="Mir">
<g id="Group 27">
<path id="Shape" fill-rule="evenodd" clip-rule="evenodd" d="M27.2866 11.935L24.6576 17.8598H24.3654V10.5851H20.5679V22.8097H23.7812C24.6576 22.8097 25.3879 22.2847 25.753 21.5347L28.3821 15.6099H28.6742V22.8097H32.4718V10.5851H29.2584C28.3821 10.5851 27.6518 11.1101 27.2866 11.935Z" fill="#24A23F"/>
<path id="Shape_2" fill-rule="evenodd" clip-rule="evenodd" d="M13.1188 12.235L11.5122 17.8598H11.2201L9.6134 12.235C9.32128 11.2601 8.51795 10.6601 7.56856 10.6601H3.771V22.8847H7.56856V15.6849H7.86068L10.0516 22.8847H12.7537L14.9446 15.6849H15.2367V22.8847H19.0343V10.5851H15.2367C14.2143 10.5851 13.3379 11.2601 13.1188 12.235Z" fill="#24A23F"/>
<path id="Shape_3" fill-rule="evenodd" clip-rule="evenodd" d="M34.0786 16.1348V22.8096H37.8762V18.9097H41.9659C43.7186 18.9097 45.2522 17.7847 45.7634 16.1348H34.0786Z" fill="#24A23F"/>
<path id="Fill 10 Copy" fill-rule="evenodd" clip-rule="evenodd" d="M34.3706 10.5091C34.8469 13.1689 37.1131 15.1846 39.8405 15.1846H45.9298C45.979 14.9326 46.0056 14.6721 46.0056 14.4051C46.0056 12.2537 44.3069 10.5091 42.2119 10.5091H34.3706Z" fill="#4A90E2"/>
</g>
</g>
</svg>
