<svg width="50" height="34" viewBox="0 0 50 34" fill="none" xmlns="http://www.w3.org/2000/svg">
<g id="&#209;&#129;&#208;&#177;&#208;&#191;">
<g id="&#208;&#161;&#208;&#145;&#208;&#159;_&#208;&#187;&#208;&#190;&#208;&#179;&#208;&#190;&#209;&#130;&#208;&#184;&#208;&#191; 1">
<path id="path60" d="M39.7743 12.4811V17.3469H38.0749V13.9337H36.4387V17.3469H34.7393V12.4808H39.7743V12.4811Z" fill="#424243"/>
<path id="path62" fill-rule="evenodd" clip-rule="evenodd" d="M31.249 17.5209C32.7703 17.5209 33.9 16.5673 33.9 15.1215C33.9 13.7222 33.0665 12.8137 31.6736 12.8137C31.0307 12.8137 30.5002 13.045 30.1007 13.4442C30.1961 12.6191 30.8785 12.0167 31.6299 12.0167C31.8033 12.0167 33.1089 12.0139 33.1089 12.0139L33.8471 10.5695C33.8471 10.5695 32.2081 10.6076 31.4461 10.6076C29.7052 10.6386 28.5293 12.2566 28.5293 14.2216C28.5293 16.5109 29.6762 17.5209 31.249 17.5209ZM31.2583 14.093C31.8231 14.093 32.2147 14.4725 32.2147 15.1213C32.2147 15.7053 31.8668 16.1865 31.2583 16.1878C30.6762 16.1878 30.2847 15.742 30.2847 15.1313C30.2847 14.4823 30.6762 14.093 31.2583 14.093Z" fill="#424243"/>
<path id="path64" d="M27.1469 15.7179C27.1469 15.7179 26.7456 15.9544 26.1462 15.9992C25.4571 16.0201 24.8431 15.5751 24.8431 14.7845C24.8431 14.0133 25.3849 13.5713 26.1288 13.5713C26.585 13.5713 27.1884 13.8945 27.1884 13.8945C27.1884 13.8945 27.63 13.0661 27.8587 12.6518C27.4399 12.3272 26.882 12.1492 26.2331 12.1492C24.5955 12.1492 23.3271 13.2409 23.3271 14.7747C23.3271 16.3281 24.5193 17.3944 26.2331 17.3622C26.7121 17.3439 27.373 17.172 27.7758 16.9074L27.1469 15.7179Z" fill="#424243"/>
<path id="path66" d="M6.25 11.1321L8.60735 15.4402V18.0679L6.25276 22.3675L6.25 11.1321Z" fill="#5B57A2"/>
<path id="path68" d="M15.3008 13.8725L17.5097 12.4883L22.0304 12.484L15.3008 16.699V13.8725Z" fill="#D90751"/>
<path id="path70" d="M15.2889 11.1067L15.3013 16.8104L12.9385 15.3261V6.80002L15.2889 11.1067Z" fill="#FAB718"/>
<path id="path72" d="M22.0309 12.484L17.5101 12.4883L15.2889 11.1067L12.9385 6.80002L22.0309 12.484Z" fill="#ED6F26"/>
<path id="path74" d="M15.3013 22.3914V19.6241L12.9385 18.168L12.9398 26.7025L15.3013 22.3914Z" fill="#63B22F"/>
<path id="path76" d="M17.5047 21.0198L8.60719 15.4402L6.25 11.1321L22.0213 21.0142L17.5047 21.0198Z" fill="#1487C9"/>
<path id="path78" d="M12.9395 26.7025L15.3007 22.3914L17.5041 21.0198L22.0207 21.0142L12.9395 26.7025Z" fill="#017F36"/>
<path id="path80" d="M6.25293 22.3675L12.9579 18.1681L10.7037 16.7541L8.60752 18.068L6.25293 22.3675Z" fill="#984995"/>
<path id="path82" d="M24.8436 20.6217C24.7917 20.6894 24.7234 20.7405 24.6415 20.775C24.5575 20.8099 24.4675 20.8277 24.3768 20.8274C24.2865 20.8286 24.1968 20.8132 24.1119 20.7819C24.0356 20.7536 23.9659 20.7094 23.9072 20.6522C23.8491 20.5949 23.8036 20.5257 23.7735 20.4492C23.7409 20.3654 23.7246 20.2759 23.7256 20.1857C23.7256 20.0961 23.7407 20.0132 23.772 19.9346C23.802 19.8558 23.8457 19.7883 23.9003 19.7316C23.955 19.6737 24.0205 19.6296 24.0942 19.5951C24.1693 19.5619 24.2512 19.544 24.3412 19.544C24.4383 19.544 24.5283 19.5564 24.6102 19.5811C24.6921 19.606 24.7617 19.6475 24.819 19.7055L24.7194 19.878C24.6712 19.8334 24.6145 19.7995 24.5528 19.7785C24.4941 19.7592 24.4329 19.7494 24.3713 19.7496C24.3168 19.7496 24.2648 19.7606 24.2144 19.7813C24.1647 19.8018 24.1193 19.8318 24.0806 19.8697C24.041 19.9087 24.0099 19.9557 23.9891 20.0077C23.9659 20.0615 23.955 20.1208 23.955 20.187C23.955 20.2547 23.9672 20.3154 23.9904 20.3678C24.0137 20.4217 24.045 20.4673 24.0846 20.5058C24.1242 20.5446 24.1706 20.5734 24.2238 20.5928C24.2772 20.6136 24.3331 20.6232 24.3932 20.6232C24.4668 20.6232 24.5338 20.6079 24.5911 20.5789C24.6478 20.5509 24.6988 20.5121 24.7413 20.4645L24.8436 20.6217ZM25.1248 20.7983V19.5702H25.3405V20.4852L26.0421 19.5702H26.2578V20.7985H26.0421V19.8835L25.3405 20.7985L25.1248 20.7983ZM27.687 20.6217C27.6339 20.6899 27.5643 20.7428 27.485 20.775C27.4009 20.8099 27.3109 20.8277 27.2201 20.8274C27.1299 20.8286 27.0402 20.8132 26.9554 20.7819C26.8791 20.7536 26.8093 20.7094 26.7505 20.6522C26.6925 20.5949 26.6469 20.5257 26.6168 20.4492C26.5842 20.3654 26.568 20.2759 26.569 20.1857C26.569 20.0961 26.5841 20.0132 26.6154 19.9346C26.6455 19.8558 26.6892 19.7883 26.7437 19.7316C26.7984 19.6737 26.8639 19.6296 26.9375 19.5951C27.0153 19.56 27.0996 19.5426 27.1846 19.544C27.2816 19.544 27.3716 19.5564 27.4536 19.5811C27.5355 19.606 27.6051 19.6475 27.6625 19.7055L27.5627 19.878C27.5146 19.8334 27.4579 19.7995 27.3963 19.7785C27.3376 19.7592 27.2764 19.7495 27.2148 19.7496C27.1063 19.75 27.0022 19.793 26.9239 19.8697C26.8847 19.909 26.8536 19.9559 26.8324 20.0077C26.8092 20.0615 26.7984 20.1208 26.7984 20.187C26.7984 20.2547 26.8107 20.3154 26.8339 20.3678C26.8571 20.4217 26.8884 20.4673 26.928 20.5058C26.9676 20.5446 27.0141 20.5734 27.0673 20.5928C27.1205 20.6121 27.1765 20.6232 27.2365 20.6232C27.3103 20.6232 27.3759 20.6079 27.4344 20.5789C27.4912 20.5509 27.5421 20.5121 27.5846 20.4645L27.687 20.6217ZM27.7976 19.5702H28.9046V19.7883H28.4596V20.7983H28.2439V19.7883H27.7989V19.5702H27.7976Z" fill="#424243"/>
<path id="path84" fill-rule="evenodd" clip-rule="evenodd" d="M29.9121 20.7861C29.994 20.7599 30.0636 20.7197 30.1236 20.6647L30.0581 20.4935C30.0185 20.5295 29.9653 20.5599 29.9012 20.5847C29.837 20.6096 29.7646 20.6219 29.6855 20.6219C29.5667 20.6219 29.4684 20.5902 29.3906 20.5254C29.3128 20.4603 29.2705 20.3695 29.2609 20.2534H30.1947C30.2042 20.2106 30.2083 20.1623 30.2083 20.1057C30.2083 20.0215 30.1932 19.9457 30.1632 19.8767C30.1353 19.8097 30.0944 19.7491 30.0432 19.6986C29.9912 19.6485 29.9299 19.6096 29.8629 19.5841C29.7929 19.5563 29.7183 19.5423 29.6431 19.5427C29.5421 19.5427 29.4533 19.5606 29.3756 19.5938C29.3022 19.6254 29.2357 19.6718 29.1803 19.7304C29.1265 19.7887 29.0852 19.8578 29.059 19.9333C29.0301 20.0137 29.0158 20.0987 29.0166 20.1844C29.0166 20.2811 29.033 20.3693 29.063 20.4481C29.0922 20.5244 29.1369 20.5935 29.1941 20.6509C29.2501 20.7073 29.3182 20.7503 29.3988 20.7806C29.4851 20.8119 29.5762 20.8273 29.6678 20.826C29.7507 20.8255 29.8331 20.8119 29.9121 20.7861ZM29.3661 19.8407C29.4329 19.7787 29.5216 19.7483 29.6336 19.7483C29.7387 19.7483 29.8233 19.7774 29.8848 19.8354C29.9463 19.8933 29.9789 19.9734 29.9844 20.0754H29.2473C29.2578 19.9851 29.3 19.9016 29.3661 19.8407Z" fill="#424243"/>
<path id="path86" d="M30.501 19.5702H30.6976L31.1644 20.1789L31.6067 19.5702H31.7977V20.7985H31.5822V19.9029L31.1617 20.4728H31.1534L30.7167 19.9027V20.7984H30.501V19.5702Z" fill="#424243"/>
<path id="path88" fill-rule="evenodd" clip-rule="evenodd" d="M32.3853 19.5743C32.3198 19.5918 32.2573 19.6192 32.1997 19.6556L32.257 19.8298C32.3062 19.8049 32.3553 19.7841 32.4045 19.7662C32.4536 19.7482 32.5164 19.7399 32.5915 19.7399C32.6515 19.7399 32.6994 19.7496 32.7362 19.7689C32.773 19.7868 32.8003 19.8145 32.8194 19.8477C32.8386 19.8808 32.8509 19.9221 32.8577 19.9704C32.8645 20.0187 32.8673 20.0711 32.8673 20.1278C32.8231 20.0963 32.7728 20.0751 32.7198 20.0656C32.6686 20.0552 32.6165 20.0496 32.5642 20.049C32.5 20.049 32.44 20.0588 32.3826 20.0752C32.3253 20.0918 32.2761 20.1167 32.2366 20.1499C32.1962 20.183 32.1635 20.2249 32.141 20.2726C32.117 20.3248 32.1048 20.3819 32.1055 20.4396C32.1055 20.5597 32.1397 20.6536 32.2079 20.7199C32.2761 20.7861 32.3662 20.8191 32.4781 20.8191C32.5792 20.8191 32.6598 20.8012 32.7211 20.7653C32.7826 20.7293 32.8317 20.688 32.8673 20.6411V20.7998H33.0692V20.0464C33.0692 19.8861 33.0352 19.7621 32.9656 19.675C32.8973 19.5881 32.7758 19.544 32.6038 19.544C32.5273 19.544 32.4549 19.5549 32.3853 19.5743ZM32.7459 20.5695C32.6968 20.6053 32.6325 20.6217 32.5534 20.6217C32.4838 20.6217 32.4291 20.6038 32.391 20.5693C32.3527 20.5335 32.3336 20.4865 32.3336 20.4285C32.3336 20.3942 32.3404 20.3651 32.3555 20.3389C32.3706 20.3127 32.391 20.292 32.4142 20.2754C32.4396 20.2581 32.4677 20.2454 32.4974 20.2381C32.5289 20.2298 32.5602 20.2256 32.593 20.2256C32.6995 20.2256 32.7909 20.2519 32.866 20.3071V20.463C32.8306 20.5035 32.7902 20.5394 32.7459 20.5695ZM34.9737 19.1381C35.0173 19.1176 35.0582 19.0831 35.0965 19.032L34.979 18.8595C34.949 18.901 34.9149 18.9298 34.8767 18.9451C34.8361 18.9613 34.794 18.9733 34.7511 18.9809L34.7102 18.9884C34.6747 18.9947 34.6366 19.0016 34.5955 19.0086C34.5297 19.0211 34.4656 19.0414 34.4044 19.0693C34.3074 19.1121 34.2297 19.17 34.171 19.2431C34.1123 19.3163 34.0659 19.399 34.0344 19.4903C34.0025 19.5827 33.9811 19.6785 33.9704 19.7759C33.9593 19.8754 33.954 19.9704 33.954 20.0615C33.954 20.1789 33.9689 20.285 33.9989 20.3802C34.0291 20.4756 34.0712 20.5555 34.1272 20.6204C34.1832 20.6867 34.2502 20.7365 34.3293 20.7723C34.4085 20.8081 34.4972 20.826 34.5968 20.826C34.6883 20.826 34.773 20.8081 34.8494 20.775C34.9231 20.7431 34.9899 20.6967 35.046 20.6385C35.1005 20.5817 35.1443 20.5141 35.1743 20.4383C35.2056 20.3623 35.2207 20.2809 35.2207 20.1953C35.2207 20.1029 35.2071 20.0188 35.1811 19.9442C35.1572 19.873 35.1191 19.8078 35.0692 19.7525C35.0192 19.6981 34.9581 19.6556 34.8903 19.6281C34.8156 19.598 34.7359 19.583 34.6556 19.584C34.6036 19.584 34.5532 19.5909 34.504 19.6047C34.4562 19.6185 34.4103 19.6384 34.3675 19.6641C34.3259 19.6884 34.2877 19.7186 34.2542 19.7536C34.2215 19.7883 34.1942 19.8269 34.1751 19.8711H34.1696C34.1738 19.8145 34.1806 19.7566 34.1928 19.6972C34.2051 19.6379 34.2228 19.5811 34.2461 19.5274C34.2693 19.4737 34.2993 19.4252 34.3362 19.3811C34.3756 19.3366 34.4241 19.3013 34.4781 19.2776C34.5375 19.2487 34.6004 19.2278 34.6651 19.2156L34.708 19.2076C34.7506 19.1997 34.7913 19.192 34.8303 19.1838C34.8822 19.1728 34.9299 19.1587 34.9737 19.1381ZM34.2147 20.3182C34.1935 20.2485 34.1834 20.1759 34.1846 20.1029C34.1938 20.0611 34.2105 20.0213 34.2338 19.9857C34.257 19.9483 34.287 19.9153 34.3225 19.8861C34.4027 19.8219 34.5018 19.7874 34.6036 19.7883C34.7307 19.7883 34.8262 19.8283 34.893 19.907C34.96 19.987 34.9928 20.0863 34.9928 20.2064C34.9928 20.2658 34.9818 20.3197 34.9628 20.3693C34.9444 20.4182 34.9165 20.4628 34.8808 20.5005C34.8452 20.5382 34.8025 20.5682 34.7553 20.5887C34.7062 20.6108 34.6528 20.6219 34.5928 20.6219C34.5328 20.6219 34.4781 20.6094 34.4276 20.5846C34.3775 20.5602 34.3332 20.5248 34.2979 20.4811C34.2609 20.4323 34.2327 20.3771 34.2147 20.3182ZM36.8752 19.5702H36.6594V20.7985H36.8752V19.5702ZM35.5319 19.5702H35.7476V19.9387H35.947C36.0411 19.9387 36.1175 19.9512 36.1789 19.9745C36.2404 19.9981 36.2896 20.0298 36.3264 20.0684C36.3632 20.1071 36.3892 20.1527 36.4043 20.2036C36.4192 20.2547 36.4275 20.3071 36.4275 20.3623C36.4275 20.4175 36.4192 20.4701 36.4015 20.5225C36.3851 20.5749 36.3564 20.6204 36.3181 20.6618C36.28 20.7033 36.2281 20.7365 36.1626 20.7614C36.097 20.7861 36.0179 20.7998 35.9223 20.7998H35.5306V19.5702H35.5319ZM35.7476 20.1442V20.5942H35.9046C36.0125 20.5942 36.0889 20.5749 36.1326 20.5361C36.1764 20.4975 36.1981 20.4424 36.1981 20.3693C36.1981 20.2946 36.1749 20.2383 36.1313 20.1994C36.0862 20.1608 36.0111 20.1414 35.9074 20.1414H35.7476V20.1442Z" fill="#424243"/>
<path id="path90" d="M38.3016 20.6217C38.2497 20.6894 38.1814 20.7405 38.0995 20.775C38.0155 20.8099 37.9255 20.8277 37.8348 20.8274C37.7445 20.8286 37.6548 20.8132 37.5699 20.7819C37.4936 20.7536 37.4239 20.7095 37.3652 20.6522C37.3071 20.5949 37.2616 20.5257 37.2313 20.4492C37.1989 20.3654 37.1827 20.2759 37.1836 20.1857C37.1836 20.0961 37.1986 20.0132 37.23 19.9346C37.26 19.8558 37.3037 19.7883 37.3583 19.7316C37.413 19.6737 37.4784 19.6296 37.5522 19.5951C37.63 19.56 37.7143 19.5426 37.7993 19.544C37.8961 19.544 37.9863 19.5564 38.0682 19.5811C38.1501 19.606 38.2197 19.6475 38.277 19.7055L38.1774 19.878C38.1292 19.8334 38.0725 19.7995 38.0108 19.7785C37.9521 19.7592 37.8909 19.7495 37.8293 19.7496C37.7748 19.7496 37.7228 19.7606 37.6722 19.7813C37.6226 19.8018 37.5772 19.8318 37.5386 19.8697C37.4993 19.909 37.4682 19.9559 37.4471 20.0077C37.4239 20.0615 37.413 20.1208 37.413 20.187C37.413 20.2547 37.4252 20.3154 37.4484 20.3678C37.4716 20.4217 37.503 20.4673 37.5426 20.5058C37.5822 20.5446 37.6286 20.5734 37.6818 20.5928C37.7352 20.6121 37.7911 20.6232 37.8512 20.6232C37.9248 20.6232 37.9903 20.6079 38.0491 20.5789C38.1058 20.5509 38.1568 20.5121 38.1993 20.4645L38.3016 20.6217ZM38.4121 19.5702H39.5192V19.7883H39.0741V20.7983H38.8585V19.7883H38.4136V19.5702H38.4121Z" fill="#424243"/>
<path id="path92" fill-rule="evenodd" clip-rule="evenodd" d="M39.9697 19.5704H39.7539V21.345H39.9697V20.742C40.0133 20.771 40.0652 20.7917 40.1252 20.8055C40.1852 20.8193 40.248 20.8261 40.3123 20.8261C40.4078 20.8261 40.4938 20.8081 40.5716 20.7751C40.6463 20.7425 40.714 20.6951 40.7709 20.6358C40.8268 20.5763 40.8692 20.5073 40.8992 20.4258C40.9292 20.3446 40.9443 20.2575 40.9443 20.1651C40.9443 20.0739 40.9306 19.9898 40.9047 19.9139C40.8802 19.8417 40.8422 19.7752 40.7928 19.718C40.7442 19.6622 40.684 19.6183 40.6166 19.5896C40.5429 19.5572 40.4633 19.5412 40.3832 19.5427C40.2986 19.5427 40.2195 19.5593 40.1444 19.5924C40.0693 19.6256 40.0105 19.6654 39.9697 19.7152V19.5704ZM40.1199 19.7981C40.1814 19.7649 40.2482 19.7483 40.3205 19.7483C40.3833 19.7483 40.4393 19.758 40.4899 19.7787C40.539 19.7994 40.5799 19.8284 40.6141 19.8671C40.6482 19.9057 40.6742 19.95 40.6906 20.0023C40.7082 20.0547 40.7165 20.1114 40.7165 20.1734C40.7165 20.2398 40.7055 20.299 40.6865 20.3542C40.6686 20.4066 40.6402 20.4545 40.6031 20.495C40.5659 20.535 40.5208 20.5665 40.4707 20.5874C40.415 20.6113 40.355 20.623 40.2946 20.6219C40.236 20.6219 40.1814 20.6151 40.1294 20.6013C40.0726 20.5855 40.0187 20.5603 39.9698 20.5267V19.918C40.0079 19.8712 40.0586 19.8313 40.1199 19.7981ZM42.5987 19.5702H42.383V20.7985H42.5987V19.5702ZM41.2541 19.5702H41.4698V19.9387H41.669C41.7633 19.9387 41.8397 19.9512 41.9012 19.9746C41.9627 19.9981 42.0118 20.0298 42.0486 20.0684C42.0855 20.1071 42.1114 20.1527 42.1263 20.2036C42.1414 20.2547 42.1495 20.3071 42.1495 20.3623C42.1495 20.4176 42.1414 20.4701 42.1237 20.5225C42.1074 20.5749 42.0786 20.6204 42.0404 20.6619C42.0022 20.7033 41.9503 20.7365 41.8848 20.7614C41.8193 20.7861 41.7401 20.7998 41.6446 20.7998H41.2528V19.5702H41.2541ZM41.4713 20.1442V20.5942H41.6283C41.736 20.5942 41.8126 20.5749 41.8563 20.5361C41.8999 20.4975 41.9218 20.4424 41.9218 20.3693C41.9218 20.2947 41.8986 20.2383 41.855 20.1995C41.8099 20.1608 41.7347 20.1414 41.6311 20.1414H41.4713V20.1442Z" fill="#424243"/>
<path id="path94" d="M43.6332 20.1623L44.0946 20.7985H43.8298L43.4734 20.3016L43.1117 20.7985H42.8606L43.3192 20.1732L42.8878 19.5702H43.1527L43.4817 20.0339L43.816 19.5702H44.0673L43.6332 20.1623ZM24.6834 22.3166H24.0214V23.3406H23.8057V22.1124H24.899V23.3406H24.6834V22.3166ZM26.1234 22.3303H25.6976L25.6838 22.5373C25.6689 22.7126 25.6485 22.8534 25.6197 22.9609C25.591 23.0687 25.5555 23.1515 25.5146 23.2094C25.4738 23.2674 25.4259 23.3074 25.3712 23.3268C25.3148 23.3477 25.2552 23.358 25.1952 23.3571L25.1788 23.1445C25.202 23.1458 25.2293 23.1404 25.2593 23.1266C25.2895 23.1128 25.3195 23.0825 25.348 23.037C25.3767 22.9899 25.4027 22.9238 25.4259 22.8382C25.4491 22.7513 25.4642 22.6382 25.4723 22.4959L25.4942 22.1136H26.3392V23.3419H26.1234V22.3303Z" fill="#424243"/>
<path id="path96" fill-rule="evenodd" clip-rule="evenodd" d="M26.9205 22.1152C26.8507 22.1345 26.7879 22.162 26.7347 22.1965L26.7922 22.3705C26.8413 22.3456 26.8905 22.3249 26.9395 22.3069C26.9886 22.289 27.0516 22.2807 27.1265 22.2807C27.1867 22.2807 27.2344 22.2904 27.2712 22.3096C27.3082 22.3277 27.3354 22.3552 27.3546 22.3884C27.3736 22.4216 27.3859 22.463 27.3927 22.5111C27.3995 22.5595 27.4023 22.612 27.4023 22.6685C27.3581 22.6371 27.3078 22.6159 27.2548 22.6065C27.2036 22.5961 27.1515 22.5905 27.0992 22.5899C27.0352 22.5899 26.975 22.5995 26.9177 22.6161C26.8603 22.6327 26.8111 22.6576 26.7716 22.6907C26.7312 22.7238 26.6985 22.7658 26.676 22.8135C26.652 22.8657 26.6399 22.9228 26.6407 22.9805C26.6407 23.1004 26.6747 23.1944 26.743 23.2606C26.8111 23.3268 26.9013 23.36 27.0133 23.36C27.1143 23.36 27.1948 23.342 27.2563 23.306C27.3176 23.2702 27.3667 23.2288 27.4023 23.1818V23.3405H27.6044V22.5871C27.6044 22.427 27.5702 22.3028 27.5006 22.2159C27.4323 22.1288 27.3108 22.0849 27.1388 22.0849C27.0651 22.0849 26.9916 22.0953 26.9205 22.1152ZM27.2822 23.11C27.2332 23.146 27.169 23.1626 27.0898 23.1626C27.0188 23.1626 26.9656 23.1447 26.9275 23.11C26.8892 23.0742 26.87 23.0272 26.87 22.9694C26.87 22.9349 26.8768 22.9058 26.8919 22.8796C26.9069 22.8534 26.9275 22.8327 26.9507 22.8161C26.9738 22.7995 27.0024 22.7871 27.0339 22.7788C27.0651 22.7706 27.0972 22.7664 27.1294 22.7665C27.2358 22.7665 27.3273 22.7927 27.4024 22.8478V23.0037C27.367 23.0443 27.3266 23.08 27.2822 23.11Z" fill="#424243"/>
<path id="path98" d="M27.8164 22.1124H28.9235V22.3303H28.4784V23.3406H28.2628V22.3305H27.8179V22.1124H27.8164Z" fill="#424243"/>
<path id="path100" fill-rule="evenodd" clip-rule="evenodd" d="M29.9308 23.3281C30.0127 23.3019 30.0823 23.2618 30.1423 23.2067L30.0768 23.0355C30.0372 23.0715 29.984 23.1019 29.9198 23.1268C29.8557 23.1516 29.7833 23.1639 29.7042 23.1639C29.5854 23.1639 29.4871 23.1322 29.4093 23.0674C29.3314 23.0025 29.2892 22.9115 29.2796 22.7954H30.2134C30.2228 22.7528 30.227 22.7043 30.227 22.6478C30.227 22.5637 30.2119 22.4877 30.1819 22.4187C30.154 22.3518 30.1131 22.2912 30.0617 22.2408C30.0098 22.1906 29.9486 22.1516 29.8816 22.1262C29.8116 22.0984 29.737 22.0843 29.6618 22.0847C29.5608 22.0847 29.472 22.1026 29.3943 22.1358C29.3208 22.1673 29.2544 22.2138 29.199 22.2725C29.1452 22.3307 29.1039 22.3998 29.0775 22.4753C29.0488 22.5557 29.0344 22.6408 29.0352 22.7264C29.0352 22.8231 29.0516 22.9113 29.0816 22.9901C29.1118 23.0687 29.1567 23.1364 29.2127 23.1929C29.2686 23.2495 29.3369 23.2923 29.4175 23.3226C29.5038 23.354 29.5948 23.3694 29.6863 23.3682C29.767 23.3682 29.8489 23.3543 29.9308 23.3281ZM29.3835 22.3814C29.4503 22.3194 29.539 22.289 29.651 22.289C29.7575 22.289 29.8408 22.3194 29.9022 22.3759C29.9636 22.434 29.9963 22.5139 30.0018 22.6161H29.2647C29.2751 22.5257 29.3173 22.4423 29.3835 22.3814ZM30.3321 22.1124H30.6051L31.0214 22.7045L30.5764 23.3406H30.3117L30.7784 22.7043L30.3321 22.1124ZM31.0746 22.1124H31.2903V23.3406H31.0746V22.1124ZM32.0615 23.3406L31.5865 22.7043L32.0302 22.1122H31.7626L31.3435 22.7043L31.794 23.3406H32.0615ZM33.0472 23.3281C33.1291 23.3019 33.1987 23.2618 33.2587 23.2067L33.1932 23.0355C33.1536 23.0715 33.1004 23.1019 33.0363 23.1268C32.9721 23.1516 32.8997 23.1639 32.8205 23.1639C32.7018 23.1639 32.6035 23.1322 32.5256 23.0674C32.4479 23.0025 32.4056 22.9115 32.396 22.7954H33.3297C33.3393 22.7528 33.3434 22.7043 33.3434 22.6478C33.3434 22.5637 33.3284 22.4877 33.2983 22.4187C33.2703 22.3518 33.2295 22.2913 33.1782 22.2408C33.1263 22.1906 33.065 22.1516 32.998 22.1262C32.9279 22.0984 32.8534 22.0843 32.7782 22.0847C32.6773 22.0847 32.5886 22.1026 32.5107 22.1358C32.4373 22.1674 32.3709 22.2139 32.3156 22.2725C32.2617 22.3307 32.2203 22.3998 32.1941 22.4753C32.1652 22.5557 32.1509 22.6408 32.1517 22.7264C32.1517 22.8231 32.1681 22.9113 32.1981 22.9901C32.2281 23.0687 32.2732 23.1364 32.3292 23.1929C32.3851 23.2495 32.4533 23.2923 32.5339 23.3226C32.6202 23.354 32.7113 23.3694 32.8029 23.3682C32.8858 23.3676 32.9682 23.3541 33.0472 23.3281ZM32.4998 22.3814C32.5668 22.3194 32.6556 22.289 32.7675 22.289C32.8726 22.289 32.9571 22.3194 33.0186 22.3759C33.0801 22.434 33.1129 22.5139 33.1182 22.6161H32.3811C32.3915 22.5257 32.4337 22.4423 32.4998 22.3814ZM34.2185 21.6998C34.0915 21.6998 34.0219 21.6279 34.0111 21.4845H33.8076C33.8076 21.5395 33.8172 21.5893 33.8349 21.6362C33.8527 21.6832 33.8787 21.7231 33.9128 21.7563C33.9468 21.7895 33.9906 21.8157 34.0411 21.8363C34.0915 21.857 34.1502 21.8666 34.2171 21.8666C34.2786 21.8666 34.3332 21.857 34.3824 21.8363C34.4315 21.817 34.4724 21.7895 34.5079 21.7563C34.542 21.7231 34.5694 21.6832 34.5884 21.6362C34.6075 21.5893 34.6171 21.5395 34.6171 21.4845H34.4151C34.4056 21.6279 34.3386 21.6998 34.2185 21.6998ZM33.6355 22.1122V23.3406H33.8513L34.5529 22.4255V23.3406H34.7686V22.1122H34.5529L33.8513 23.0273V22.1122H33.6355Z" fill="#424243"/>
</g>
</g>
</svg>
