<svg width="50" height="34" viewBox="0 0 50 34" fill="none" xmlns="http://www.w3.org/2000/svg">
<g id="Visa">
<g id="Group 26">
<g id="Combined Shape">
<path d="M34.6217 11.0742L34.1286 13.8579C32.6489 13.0622 29.2812 12.8739 29.2812 14.3391C29.2812 14.9213 30.0432 15.3217 30.9615 15.8043C32.3544 16.5362 34.1069 17.4572 34.1069 19.4881C34.1069 22.7325 30.5467 23.9256 28.1873 23.9256C25.8275 23.9256 24.2838 23.1933 24.2838 23.1933L24.7983 20.2834C26.2137 21.3925 30.5033 21.7066 30.5033 19.9485C30.5033 19.2098 29.6591 18.7741 28.6801 18.2689C27.3289 17.5716 25.7209 16.7417 25.7209 14.7999C25.7209 11.2413 29.7956 10.5091 31.5116 10.5091C33.099 10.5091 34.6217 11.0742 34.6217 11.0742Z" fill="#20347D"/>
<path d="M12.4891 19.6554L15.7861 10.7409H19.5076L14.0061 23.7022H10.4032L7.39898 12.4422C5.4492 11.2984 3.78223 10.96 3.78223 10.96L3.84582 10.7409H9.29546C10.7955 10.7409 10.9358 11.9083 10.9358 11.9083L12.0997 17.7364L12.4891 19.6554Z" fill="#20347D"/>
<path d="M18.6951 23.7022H22.1531L24.3146 10.7409H20.8563L18.6951 23.7022Z" fill="#20347D"/>
<path fill-rule="evenodd" clip-rule="evenodd" d="M42.9846 23.7022H46.1597L43.3914 10.7409H40.6113C39.3273 10.7409 39.015 11.7068 39.015 11.7068L33.8581 23.7022H37.4621L38.1833 21.7773H42.5792L42.9846 23.7022ZM40.9968 14.2666L39.1795 19.1173H42.0189L40.9968 14.2666Z" fill="#20347D"/>
</g>
</g>
</g>
</svg>
