<svg width="16" height="16" viewBox="0 0 16 16" fill="none" xmlns="http://www.w3.org/2000/svg">
<path id="Vector" d="M8.00008 0C3.58179 0 0 3.58179 0 8.00008C0 12.4184 3.58179 16 8.00008 16C12.4184 16 16 12.4184 16 8.00008C16 3.58179 12.4184 0 8.00008 0ZM11.2548 6.29468L7.9916 10.3369C7.90247 10.4498 7.76894 10.5188 7.62523 10.5264H7.6001C7.46579 10.5273 7.33673 10.4741 7.24206 10.379L5.20422 8.35796C5.00654 8.1626 5.00469 7.84403 5.20006 7.64635C5.39542 7.44868 5.71399 7.44683 5.91167 7.64219L7.55785 9.2674L10.4717 5.6631C10.6461 5.44692 10.9628 5.413 11.179 5.58739C11.3953 5.76179 11.4292 6.0785 11.2548 6.29468Z" fill="#D6A38E"/>
</svg>
