<svg width="40" height="40" viewBox="0 0 40 40" fill="none" xmlns="http://www.w3.org/2000/svg">
<g id="New/Socials">
<rect x="0.5" y="0.5" width="39" height="39" rx="19.5" fill="#F8F4F4"/>
<rect x="0.5" y="0.5" width="39" height="39" rx="19.5" stroke="#C5C5C5"/>
<path id="Vector" d="M20 14C16.1788 14 12.7135 16.0906 10.1565 19.4863C9.94784 19.7645 9.94784 20.1532 10.1565 20.4314C12.7135 23.8312 16.1788 25.9219 20 25.9219C23.8212 25.9219 27.2865 23.8312 29.8435 20.4355C30.0522 20.1573 30.0522 19.7686 29.8435 19.4904C27.2865 16.0906 23.8212 14 20 14ZM20.2741 24.1585C17.7375 24.3181 15.6428 22.2275 15.8024 19.6868C15.9333 17.5921 17.6312 15.8942 19.7259 15.7633C22.2625 15.6038 24.3572 17.6944 24.1976 20.235C24.0626 22.3257 22.3647 24.0235 20.2741 24.1585ZM20.1473 22.2193C18.7808 22.3052 17.6516 21.1801 17.7416 19.8136C17.8112 18.6845 18.7276 17.7721 19.8568 17.6985C21.2233 17.6126 22.3525 18.7376 22.2625 20.1041C22.1888 21.2374 21.2724 22.1497 20.1473 22.2193Z" fill="#638F72"/>
</g>
</svg>
