<svg width="30" height="30" viewBox="0 0 30 30" fill="none" xmlns="http://www.w3.org/2000/svg">
<g id="Icon" clip-path="url(#clip0_2128_10137)">
<path id="Vector" d="M4.28571 0.0859375C1.92188 0.0859375 0 1.99689 0 4.3473V25.6541C0 28.0045 1.92188 29.9155 4.28571 29.9155H25.7143C28.0781 29.9155 30 28.0045 30 25.6541V4.3473C30 1.99689 28.0781 0.0859375 25.7143 0.0859375H4.28571ZM12.8571 15.0007H16.0714C17.2567 15.0007 18.2143 14.0486 18.2143 12.87C18.2143 11.6915 17.2567 10.7393 16.0714 10.7393H12.8571V15.0007ZM16.0714 19.2621H12.8571V21.3928C12.8571 22.5713 11.8996 23.5234 10.7143 23.5234C9.52902 23.5234 8.57143 22.5713 8.57143 21.3928V9.14133C8.57143 7.66983 9.77009 6.47798 11.25 6.47798H16.0714C19.6205 6.47798 22.5 9.34109 22.5 12.87C22.5 16.399 19.6205 19.2621 16.0714 19.2621Z" fill="#6A9BD6"/>
</g>
<defs>
<clipPath id="clip0_2128_10137">
<rect width="30" height="30" fill="white"/>
</clipPath>
</defs>
</svg>
