<svg width="15" height="15" viewBox="0 0 15 15" fill="none" xmlns="http://www.w3.org/2000/svg">
<g clip-path="url(#clip0_2128_10178)">
<path d="M2.80246 0.691725C2.56813 0.698811 2.36228 0.822475 2.18997 0.994768L1.9025 1.28178L5.01804 4.45408L5.47031 4.00182C5.74288 3.72926 5.74287 3.27921 5.47031 3.00664L3.45798 0.994768C3.26307 0.799851 3.03678 0.684523 2.80246 0.691725ZM1.57016 1.61321L1.24011 1.9428C0.700051 2.48285 0.703614 3.1895 0.703614 3.51568C0.703614 4.86534 1.24319 7.19871 4.52182 10.4773C7.80046 13.756 10.1343 14.296 11.4839 14.296C11.8102 14.296 12.5168 14.2996 13.0568 13.7595L13.3553 13.461L10.2397 10.2887L9.9129 10.616C9.71921 10.8097 9.57627 10.8329 9.43729 10.8165C9.29831 10.8002 9.15463 10.7198 9.04956 10.6385C8.47663 10.1949 7.54901 9.55998 6.49432 8.50529C5.43963 7.4506 4.80471 6.52253 4.36115 5.94959C4.27983 5.84452 4.19942 5.70268 4.18308 5.56369C4.16669 5.4247 4.19185 5.27996 4.38541 5.08626L4.68616 4.78551L1.57016 1.61321ZM11.4949 9.3247C11.3144 9.3247 11.1341 9.39299 10.9978 9.52931L10.5712 9.95641L13.6872 13.1291L14.0049 12.8115C14.1771 12.6392 14.3002 12.4315 14.3074 12.1971C14.3145 11.9628 14.1998 11.7366 14.0049 11.5416L11.9925 9.52931C11.8562 9.39303 11.6755 9.3247 11.4949 9.3247Z" fill="#405C4A"/>
</g>
<defs>
<clipPath id="clip0_2128_10178">
<rect width="15" height="15" fill="white"/>
</clipPath>
</defs>
</svg>
