<svg width="16" height="16" viewBox="0 0 16 16" fill="none" xmlns="http://www.w3.org/2000/svg">
<g id="loupe" clip-path="url(#clip0_4003_5526)">
<g id="Group">
<g id="Group_2">
<path id="Vector" d="M6.47734 0.339844C9.86797 0.339844 12.6148 3.08672 12.6148 6.47734C12.6148 7.94297 12.1023 9.28672 11.2461 10.343L15.4648 14.5617C15.7148 14.8117 15.7148 15.2148 15.4648 15.4648C15.2148 15.7148 14.8117 15.7148 14.5617 15.4648L10.343 11.2461C9.28672 12.1023 7.94297 12.6148 6.47734 12.6148C3.08672 12.6148 0.339844 9.86797 0.339844 6.47734C0.339844 3.08672 3.08984 0.339844 6.47734 0.339844ZM6.47734 11.3398C9.16172 11.3398 11.3398 9.16172 11.3398 6.47734C11.3398 3.79297 9.16172 1.61484 6.47734 1.61484C3.79297 1.61484 1.61484 3.79297 1.61484 6.47734C1.61484 9.16172 3.79297 11.3398 6.47734 11.3398Z" fill="#424243"/>
</g>
</g>
</g>
<defs>
<clipPath id="clip0_4003_5526">
<rect width="16" height="16" fill="white" transform="matrix(-1 0 0 1 16 0)"/>
</clipPath>
</defs>
</svg>
