<svg width="18" height="14" viewBox="0 0 18 14" fill="none" xmlns="http://www.w3.org/2000/svg">
<path d="M17.5242 0.294577C17.5115 0.232959 17.4832 0.175634 17.4418 0.128173C17.4005 0.0807116 17.3476 0.0447184 17.2882 0.0236772C17.0645 -0.0196077 16.8333 -0.00334205 16.6179 0.0708066C16.6179 0.0708066 1.73076 5.4133 0.878789 6.00456C0.697066 6.13176 0.642784 6.20713 0.605023 6.29193C0.4587 6.71359 0.91655 6.8997 0.91655 6.8997L4.75398 8.14815C4.81755 8.16363 4.88393 8.16363 4.9475 8.14815C5.82072 7.59694 13.7292 2.61249 14.1871 2.44524C14.2579 2.42404 14.3122 2.44524 14.298 2.49706C14.1139 3.13779 7.24383 9.23175 7.24383 9.23175C7.22709 9.25367 7.21284 9.27735 7.20135 9.3024L6.84498 13.102C6.84498 13.102 6.69393 14.2657 7.85979 13.102C8.68345 12.2799 9.47879 11.5921 9.87764 11.2599C11.1969 12.1692 12.6176 13.175 13.2289 13.7003C13.3322 13.7994 13.4543 13.877 13.5881 13.9283C13.7218 13.9797 13.8645 14.0039 14.0077 13.9995C14.5883 13.9783 14.7511 13.3399 14.7511 13.3399C14.7511 13.3399 17.4652 2.44054 17.5549 0.980066C17.5549 0.83873 17.5761 0.744498 17.5761 0.647918C17.5775 0.528147 17.56 0.408904 17.5242 0.294577Z" fill="#638F72"/>
</svg>
