<svg width="18" height="18" viewBox="0 0 18 18" fill="none" xmlns="http://www.w3.org/2000/svg">
<path fill-rule="evenodd" clip-rule="evenodd" d="M14.6216 3.37883C13.1731 1.93372 11.2457 1.06219 9.19904 0.926749C7.15235 0.791306 5.12601 1.4012 3.49788 2.6427C1.86975 3.8842 0.750973 5.67256 0.350177 7.67429C-0.0506186 9.67602 0.293927 11.7545 1.31956 13.5221L0.121582 17.8779L4.59968 16.7094C5.83965 17.38 7.22837 17.7317 8.63965 17.7326C10.311 17.7327 11.9448 17.2397 13.3345 16.316C14.7243 15.3922 15.8076 14.0791 16.4474 12.5428C17.0873 11.0065 17.2549 9.31586 16.9293 7.6847C16.6036 6.05354 15.7992 4.5551 14.6177 3.37883H14.6216ZM8.64163 16.3127C7.38336 16.3098 6.14897 15.9707 5.06743 15.3308L4.81086 15.1796L2.15243 15.8728L2.85108 13.3021L2.69319 13.039C1.86574 11.7262 1.5002 10.177 1.65403 8.63497C1.80785 7.09293 2.47233 5.64547 3.54299 4.52017C4.61366 3.39486 6.02979 2.65552 7.56876 2.41836C9.10773 2.18121 10.6823 2.4597 12.0449 3.21004C13.4074 3.96039 14.4808 5.14004 15.0961 6.56355C15.7115 7.98706 15.834 9.57371 15.4444 11.074C15.0547 12.5744 14.1751 13.9033 12.9437 14.852C11.7123 15.8006 10.1989 16.3151 8.64163 16.3147V16.3127ZM12.4961 11.0751C12.2849 10.9691 11.2468 10.4624 11.0534 10.3917C10.86 10.321 10.7179 10.2876 10.5777 10.4978C10.4376 10.7079 10.033 11.1812 9.90868 11.3206C9.78434 11.4601 9.66198 11.4777 9.4508 11.3736C8.82894 11.1258 8.25475 10.773 7.75351 10.3308C7.28842 9.90691 6.88933 9.41647 6.56935 8.87563C6.44501 8.6655 6.55553 8.5516 6.6621 8.44751C6.76867 8.34343 6.87327 8.20203 6.97787 8.07831C7.06562 7.97522 7.13807 7.86015 7.193 7.7366C7.22071 7.67834 7.23358 7.61418 7.23049 7.54979C7.22739 7.4854 7.20841 7.42276 7.17523 7.3674C7.12194 7.26332 6.6996 6.22837 6.52395 5.80811C6.3483 5.38784 6.17857 5.45462 6.05029 5.44872C5.922 5.44283 5.78583 5.44872 5.64373 5.44872C5.53683 5.45174 5.43169 5.47667 5.33491 5.52195C5.23813 5.56723 5.15177 5.63189 5.08124 5.71188C4.8428 5.93693 4.65403 6.20889 4.52695 6.51048C4.39987 6.81206 4.33727 7.13666 4.34312 7.46363C4.34312 8.49661 5.09901 9.49621 5.20558 9.63564C5.31216 9.77508 6.69368 11.898 8.81136 12.8073C9.20467 12.9758 9.6065 13.124 10.0152 13.2511C10.4462 13.3811 10.9016 13.4094 11.3455 13.3336C11.752 13.2727 12.5947 12.8249 12.7704 12.3359C12.9461 11.8469 12.948 11.4247 12.8947 11.3363C12.8415 11.248 12.7072 11.1851 12.4961 11.0751Z" fill="#638F72"/>
</svg>
