<svg width="128" height="128" viewBox="0 0 128 128" fill="none" xmlns="http://www.w3.org/2000/svg">
<g id="Favicon">
<rect width="128" height="128" fill="#F8F4F4"/>
<g id="Group 32">
<path id="Vector" d="M65.7515 95.5679C68.4864 97.0334 73.4175 99.2425 79.0061 100.501C76.8588 101.23 74.2009 101.83 70.8715 102.345C62.4012 103.646 40.5784 94.2024 30.912 84.7157C14.9995 69.0879 2.4794 50.8579 37.214 26.0723C60.5826 9.40083 78.7473 24.7498 87.1127 45.725C81.4052 45.9394 75.6068 48.5345 70.7386 54.5683C56.0222 72.8197 54.959 89.7843 65.7445 95.575H65.7515V95.5679Z" fill="#F0DDD4"/>
<g id="Group">
<path id="Vector_2" d="M90.5408 84.0506C87.9949 93.0369 87.1205 97.7266 79.0069 100.5C73.4183 99.2422 68.4872 97.0332 65.7524 95.5676H65.7454C54.9599 89.7841 56.023 72.8195 70.7395 54.5681C75.6076 48.5343 81.406 45.9392 87.1135 45.7247C92.1636 58.3856 93.6394 73.0911 90.5408 84.0506Z" fill="#D4A191"/>
<path id="Vector_3" d="M112.42 68.3587C112.42 74.8071 108.09 89.0337 102.047 95.5679C95.9475 102.166 86.8337 102.259 79.0068 100.501C87.1204 97.7269 87.9948 93.0371 90.5407 84.0508C93.6393 73.0914 92.1635 58.3859 87.1134 45.725C100.011 45.2388 112.42 56.906 112.42 68.3587Z" fill="#DAAA98"/>
</g>
<g id="Group_2">
<path id="Vector_4" d="M105.899 63.812H105.892C105.892 52.7524 102.646 44.0092 96.505 38.5402C91.9096 34.451 85.9433 32.3635 78.732 32.2777C78.5362 31.0909 77.522 30.183 76.2979 30.183C74.997 30.183 73.9408 31.2125 73.8429 32.4993C73.2134 32.5636 72.5839 32.6423 71.9404 32.7352C69.3384 33.107 66.8904 33.5716 64.5822 34.1293C62.7776 33.8505 60.931 33.7075 59.0845 33.7075C43.0881 33.7075 29.5678 44.5525 25.3431 59.3367C25.1752 59.3081 25.0074 59.2795 24.8325 59.2795C23.4686 59.2795 22.3564 60.4019 22.3564 61.7888C22.3564 62.9898 23.1958 63.9978 24.3149 64.2338C24.0981 65.8351 23.9722 67.4651 23.9722 69.1237C23.9722 87.9685 34.6108 108 54.3352 108C61.9033 108 69.4923 105.09 75.9832 100.351C82.2363 99.557 87.9577 96.9119 92.7 92.9299C93.0987 93.2159 93.5883 93.3874 94.1199 93.3874C95.4838 93.3874 96.5959 92.265 96.5959 90.8781C96.5959 90.392 96.4561 89.9345 96.2113 89.5484C102.199 82.907 105.899 73.8277 105.899 63.812ZM54.3213 106.87H54.3283C35.3382 106.863 25.0913 87.418 25.0913 69.1308C25.0913 67.4651 25.2172 65.8208 25.448 64.2123C26.5182 63.9406 27.3155 62.9612 27.3155 61.7888C27.3155 60.9953 26.9448 60.2875 26.3713 59.83C30.4001 45.4319 43.5428 34.8442 59.0915 34.8442C59.9308 34.8442 60.7632 34.8871 61.5885 34.9514C49.0474 38.7046 41.4934 45.725 39.0383 55.9195C38.185 58.3573 37.6954 60.9238 37.6954 63.526C37.6954 65.5706 38.0031 67.5438 38.5347 69.4168C39.6258 77.1735 42.9622 84.1438 47.8024 89.5198C47.4387 89.9559 47.2149 90.5135 47.2149 91.1212C47.2149 92.5081 48.32 93.6305 49.6909 93.6305C50.3414 93.6305 50.9219 93.3731 51.3626 92.9585C57.0841 97.7555 64.2464 100.629 72.0173 100.629C72.4929 100.629 72.9686 100.615 73.4372 100.586C67.5338 104.504 60.8821 106.878 54.3283 106.878L54.3213 106.87ZM51.0758 75.136C57.161 75.136 65.0018 68.9021 65.0018 62.2749C65.0018 58.6647 63.1203 55.1831 59.693 52.4665C56.7274 50.1145 52.9154 48.6561 49.7399 48.6561C46.998 48.6561 44.487 49.6355 42.5146 51.2583C46.3755 45.1673 52.7825 40.8493 59.4202 40.8493C69.6532 40.8493 84.0618 45.9966 84.0618 57.4565V57.8139C83.7611 69.0593 69.5762 83.7148 58.8397 83.7148C49.7469 83.7148 42.0669 77.581 39.6258 69.1952C39.444 67.8869 39.3321 66.55 39.2901 65.1989C41.4794 70.7036 46.8302 75.136 51.0758 75.136ZM39.409 60.5592C39.5349 59.2366 39.7308 57.9569 40.0035 56.7344C41.4374 52.7024 45.2564 49.8071 49.7399 49.8071C55.4334 49.8071 63.8897 55.0473 63.8897 62.2821C63.8897 68.2086 56.5455 73.9993 51.0758 73.9993C45.6061 73.9993 39.6188 66.2855 39.409 60.5592ZM75.2767 99.3068C74.2066 99.4212 73.1224 99.4855 72.0243 99.4855C64.4842 99.4855 57.5387 96.6974 51.9921 92.0148C52.097 91.736 52.16 91.4357 52.16 91.1212C52.16 89.7343 51.0548 88.6119 49.6839 88.6119V88.5976C49.3202 88.5976 48.9845 88.6762 48.6837 88.8121C45.0955 84.8515 42.3537 79.983 40.7799 74.5498C44.494 80.7122 51.1947 84.8515 58.8467 84.8515C70.4156 84.8515 85.1809 69.4811 85.1809 57.4493L85.111 56.0553C84.6424 51.2083 81.7117 47.0976 76.5707 44.0807C71.8424 41.314 65.5964 39.7269 59.4272 39.7269C54.0205 39.7269 48.7467 42.4436 44.7598 46.64C48.9775 41.3355 55.6082 37.5465 64.6311 35.3017C72.2901 36.5456 79.4105 40.3132 84.7193 46.0824C90.5038 52.3664 93.4764 60.3304 93.1267 68.5661L93.0987 69.1022C92.4062 80.6693 85.055 92.1006 75.2767 99.3068ZM95.3859 88.7406C95.0082 88.5047 94.5675 88.3617 94.0989 88.3617C92.735 88.3617 91.6229 89.4841 91.6229 90.871C91.6229 91.3142 91.7418 91.7146 91.9376 92.072C87.8878 95.4678 83.0966 97.8484 77.8717 98.8779C86.8037 91.6216 93.3015 80.8552 94.1479 69.6885H94.1549L94.1968 69.1594C94.7214 60.4162 91.6369 51.9375 85.5097 45.2889C80.6275 39.9843 74.2556 36.324 67.331 34.6726C68.8558 34.358 70.4296 34.0864 72.0733 33.8576C72.7238 33.7718 73.3533 33.7146 73.9898 33.6503C74.3605 34.5582 75.2488 35.2016 76.277 35.2016C77.3891 35.2016 78.3264 34.451 78.6341 33.4215C85.6146 33.493 91.3641 35.4804 95.7566 39.3981C101.646 44.6383 104.752 53.0813 104.752 63.8191C104.752 73.5203 101.17 82.3208 95.3789 88.7477L95.3859 88.7406Z" fill="#424243"/>
<path id="Vector_5" d="M51.104 60.7307C52.4679 60.7307 53.58 59.6083 53.58 58.2214C53.58 56.8345 52.4749 55.7121 51.104 55.7121C49.7331 55.7121 48.6279 56.8345 48.6279 58.2214C48.6279 59.6083 49.7331 60.7307 51.104 60.7307Z" fill="#424243"/>
</g>
</g>
</g>
</svg>
